<?xml version="1.0" encoding="UTF-8" standalone="no"?>
<!-- Created with Inkscape (http://www.inkscape.org/) -->

<svg
   version="1.1"
   id="svg1"
   width="1023.9999"
   height="1024"
   viewBox="0 0 1023.9999 1024"
   sodipodi:docname="icon.svg"
   inkscape:version="1.4 (e7c3feb100, 2024-10-09)"
   inkscape:export-filename="icon.png"
   inkscape:export-xdpi="96"
   inkscape:export-ydpi="96"
   xmlns:inkscape="http://www.inkscape.org/namespaces/inkscape"
   xmlns:sodipodi="http://sodipodi.sourceforge.net/DTD/sodipodi-0.dtd"
   xmlns="http://www.w3.org/2000/svg"
   xmlns:svg="http://www.w3.org/2000/svg">
  <defs
     id="defs1" />
  <sodipodi:namedview
     id="namedview1"
     pagecolor="#505050"
     bordercolor="#eeeeee"
     borderopacity="1"
     inkscape:showpageshadow="0"
     inkscape:pageopacity="0"
     inkscape:pagecheckerboard="0"
     inkscape:deskcolor="#505050"
     inkscape:zoom="0.2770196"
     inkscape:cx="492.74491"
     inkscape:cy="342.93602"
     inkscape:window-width="1894"
     inkscape:window-height="1116"
     inkscape:window-x="10"
     inkscape:window-y="39"
     inkscape:window-maximized="0"
     inkscape:current-layer="g1"
     inkscape:export-bgcolor="#ffffffff" />
  <g
     inkscape:groupmode="layer"
     inkscape:label="Image"
     id="g1"
     transform="translate(-293.23539,-188.70192)">
    <ellipse
       style="fill:#ffffff;stroke:none;stroke-width:5;stroke-linecap:round;stroke-linejoin:round;paint-order:markers stroke fill;fill-opacity:1"
       id="path8"
       cx="805.23535"
       cy="700.7019"
       rx="511.99994"
       ry="512" />
    <path
       id="path7"
       style="fill:#df8e1d;fill-opacity:1;stroke-width:1.92207;stroke-linecap:round;stroke-linejoin:round;paint-order:markers stroke fill"
       sodipodi:type="inkscape:offset"
       inkscape:radius="36.462078"
       inkscape:original="M 1838.0273 1335.7598 L 1796.0078 1335.7891 C 1772.8965 1335.8058 1752.8927 1336.5126 1751.5566 1337.3613 C 1749.7451 1338.5121 1748.7845 1358.1135 1747.7773 1414.4512 L 1747.7773 1414.4531 C 1747.0345 1456.0037 1747.1436 1489.998 1748.0195 1489.998 C 1750.0304 1489.998 1832.2169 1450.4865 1835.5566 1447.9141 C 1837.4294 1446.4716 1838.0273 1432.652 1838.0273 1390.8848 L 1838.0273 1335.7598 z "
       d="m 1838.002,1299.2969 -42.0196,0.029 c -11.9197,0.01 -22.9944,0.1918 -31.6543,0.498 -4.3299,0.1531 -7.9974,0.327 -11.2988,0.5801 -1.6507,0.1266 -3.1469,0.2523 -5.1719,0.5352 -1.0125,0.1414 -2.1179,0.2971 -3.9961,0.7285 -1.8781,0.4313 -3.5656,-0.3498 -11.8554,4.916 a 36.465724,36.465724 0 0 0 -0,0 c -19.3831,12.3136 -15.3615,19.1207 -16.3203,22.7168 -0.9588,3.5961 -1.2261,5.7946 -1.5195,8.1387 -0.587,4.6881 -0.899,9.5035 -1.2168,15.9863 -0.6356,12.9655 -1.121,32.0726 -1.627,60.373 a 36.465724,36.465724 0 0 0 -0.01,0.6524 v 0 c -0.3656,20.6856 -0.529,39.5593 -0.4844,53.4707 0.023,7.0406 0.092,12.7779 0.2344,17.2696 0.071,2.2458 0.1389,4.0685 0.33,6.332 0.096,1.1317 0.1396,2.177 0.6368,4.8203 0.2485,1.3216 0.3723,2.832 1.9902,6.9336 0.8089,2.0508 1.7547,4.8487 5.5801,9.5898 3.8253,4.7412 13.6634,13.5918 28.4179,13.5918 14.9885,0 11.1968,-1.7198 12.4258,-2.1484 1.2291,-0.4286 1.9027,-0.7046 2.586,-0.9824 1.3665,-0.5557 2.5656,-1.0801 3.9785,-1.7071 2.8258,-1.2538 6.3282,-2.8613 10.459,-4.7851 8.2615,-3.8476 18.91,-8.9063 29.6191,-14.0547 10.7091,-5.1484 21.442,-10.3694 29.8535,-14.5371 4.2058,-2.0839 7.8106,-3.8933 10.6973,-5.3828 1.4433,-0.7448 2.6872,-1.3973 3.9297,-2.0781 1.2424,-0.6809 0.6477,0.3217 6.2382,-3.9844 11.0115,-8.4815 11.8013,-14.89 13.0469,-18.6953 1.2456,-3.8053 1.6069,-6.2033 1.9453,-8.4825 0.6769,-4.5582 0.9045,-8.4762 1.1231,-13.5234 0.4372,-10.0944 0.5683,-24.1572 0.5683,-45.2148 v -55.125 a 36.465724,36.465724 0 0 0 -36.4882,-36.4629 z"
       transform="matrix(0.37110902,0,0,0.37110902,235.21691,130.6729)" />
    <path
       id="path6"
       style="fill:#df8e1d;fill-opacity:1;stroke-width:1.92207;stroke-linecap:round;stroke-linejoin:round;paint-order:markers stroke fill"
       sodipodi:type="inkscape:offset"
       inkscape:radius="28.104675"
       inkscape:original="M 1581.5781 1129.75 L 1580.2812 1148.0293 C 1578.0833 1178.995 1578.738 1641.3586 1580.9883 1647.2773 C 1583.395 1653.6074 1584.1095 1653.4169 1605.5645 1640.6973 C 1636.1479 1622.5659 1655.417 1596.5218 1660.002 1567.1191 C 1663.1627 1546.8504 1662.7477 1134.7536 1659.5645 1132.6934 C 1658.205 1131.8135 1640.1023 1130.7913 1619.3359 1130.4219 L 1581.5781 1129.75 z "
       d="m 1582.0781,1101.6504 a 28.107486,28.107486 0 0 0 -28.5351,26.1113 l -1.2969,18.2793 c -0.9061,12.7675 -0.9902,44.2244 -1.2031,92.1016 -0.2129,47.8786 -0.2668,108.7989 -0.1817,168.9433 0.085,60.1444 0.3101,119.4978 0.6543,164.2579 0.1721,22.38 0.3736,41.0973 0.6055,54.5371 0.1159,6.7198 0.2386,12.0982 0.3769,16.1211 0.069,2.0114 0.137,3.6518 0.2364,5.205 0.05,0.7766 0.1005,1.5036 0.2148,2.541 0.1143,1.0375 -0.9554,0.3505 1.7696,7.5176 0.7824,2.0581 1.0422,6.8164 9.1992,14.2344 8.1569,7.418 23.2438,8.4494 29.4824,6.7793 12.4772,-3.3402 15.7038,-7.008 26.4961,-13.4063 36.2844,-21.5112 61.8323,-54.6731 67.875,-93.4238 1.5192,-9.7425 1.0581,-14.6967 1.3476,-28.125 0.2896,-13.4282 0.5207,-31.2745 0.6993,-52.1035 0.357,-41.658 0.5025,-95.1938 0.4492,-148.1719 -0.053,-52.978 -0.3052,-105.3727 -0.7442,-144.7715 -0.2194,-19.6993 -0.4852,-36.124 -0.8027,-47.914 -0.1587,-5.895 -0.3238,-10.5859 -0.5312,-14.2598 -0.1038,-1.8369 -0.2007,-3.3438 -0.4043,-5.164 -0.1018,-0.9102 -0.1844,-1.8062 -0.5743,-3.6543 -0.1949,-0.9241 -0.3974,-2.0316 -1.2402,-4.2911 -0.8427,-2.2593 0.093,-6.6271 -11.1348,-13.8945 h -0 c -11.0683,-7.1634 -10.1195,-4.1598 -11.8379,-4.4512 -1.7185,-0.2914 -3.0515,-0.4399 -4.5234,-0.5898 -2.9439,-0.2998 -6.2577,-0.5316 -10.1602,-0.752 -7.8049,-0.4407 -17.7776,-0.794 -28.4766,-0.9843 z"
       transform="matrix(0.37110902,0,0,0.37110902,235.21691,130.6729)" />
    <path
       id="path5"
       style="fill:#df8e1d;fill-opacity:1;stroke-width:1.92207;stroke-linecap:round;stroke-linejoin:round;paint-order:markers stroke fill"
       sodipodi:type="inkscape:offset"
       inkscape:radius="20.358978"
       inkscape:original="M 1408.8164 1165.6992 L 1409.3652 1368.1309 L 1409.9121 1570.5605 L 1418.6016 1587.6953 C 1429.6356 1609.4545 1441.8897 1621.7684 1468.4805 1637.8184 C 1479.7485 1644.6198 1489.8676 1649.8872 1490.9668 1649.5234 C 1492.1571 1649.1296 1493.5223 1633.3325 1494.3438 1610.4629 C 1495.7815 1570.4286 1494.4219 1177.928 1492.8184 1170.1484 C 1491.9024 1165.7092 1491.8502 1165.6992 1450.3594 1165.6992 L 1408.8164 1165.6992 z "
       d="m 1408.8164,1145.3398 a 20.361014,20.361014 0 0 0 -20.3594,20.4141 l 0.5489,202.4316 0.5468,202.4297 a 20.361014,20.361014 0 0 0 2.2012,9.1543 l 8.6895,17.1348 c 12.3825,24.4179 29.3503,41.3434 57.5156,58.3437 5.9516,3.5925 11.5582,6.7634 16.1777,9.168 2.3098,1.2023 4.3173,2.1997 6.4102,3.0977 1.0464,0.449 2.0535,0.8763 3.6914,1.373 1.6378,0.4967 1.6087,3.7753 13.123,-0.035 9.4328,-3.1208 10.7035,-7.9359 11.8282,-10.0625 1.1247,-2.1266 1.4439,-3.3016 1.746,-4.3184 0.6044,-2.0336 0.8108,-3.3157 1.0411,-4.7305 0.4605,-2.8295 0.7787,-5.853 1.0996,-9.5644 0.6416,-7.4228 1.194,-17.3114 1.6133,-28.9824 0.8127,-22.6319 0.7514,-128.9015 0.3906,-233.0547 -0.1804,-52.0767 -0.4561,-103.1391 -0.7871,-141.7129 -0.1655,-19.2869 -0.3438,-35.4449 -0.5332,-47.0977 -0.095,-5.8263 -0.1924,-10.5141 -0.295,-13.9922 -0.051,-1.739 -0.1015,-3.1637 -0.164,-4.3906 -0.063,-1.2269 0.3469,-0.5889 -0.543,-4.9062 a 20.361014,20.361014 0 0 0 0,-0.01 c -0.2364,-1.1458 -1.8984,-9.1459 -8.4121,-14.3535 -6.5137,-5.2077 -11.3955,-5.246 -15.418,-5.668 -8.0448,-0.8438 -17.8213,-0.6719 -38.5683,-0.6719 z"
       transform="matrix(0.37110902,0,0,0.37110902,235.21691,130.6729)" />
    <path
       id="path4"
       style="fill:#df8e1d;fill-opacity:1;stroke-width:1.92207;stroke-linecap:round;stroke-linejoin:round;paint-order:markers stroke fill"
       sodipodi:type="inkscape:offset"
       inkscape:radius="22.372162"
       inkscape:original="M 1235.2031 1329.75 L 1233.6094 1341.1582 C 1231.6168 1355.41 1232.1153 1428.5648 1234.2871 1440.5625 L 1235.8984 1449.4609 L 1276.4355 1469.6484 C 1298.7311 1480.7509 1317.9978 1489.871 1319.25 1489.916 C 1323.1221 1490.0561 1324.5298 1447.7924 1322.668 1387.3379 L 1320.9277 1330.8145 L 1278.0664 1330.2832 L 1235.2031 1329.75 z "
       d="m 1235.4805,1307.3789 a 22.374399,22.374399 0 0 0 -22.4336,19.2754 l -1.5938,11.4082 c -1.7583,12.5781 -1.587,31.8648 -1.4375,53.7949 0.075,10.9656 0.2786,21.8453 0.6114,30.9336 0.3327,9.0883 0.4204,14.9829 1.6464,21.7559 a 22.374399,22.374399 0 0 0 0,0 l 1.6114,8.8985 a 22.374399,22.374399 0 0 0 12.041,16.039 l 40.5371,20.1875 a 22.374399,22.374399 0 0 0 0,0 c 11.2615,5.6079 21.7446,10.7091 29.6992,14.4746 3.9773,1.8827 7.2998,3.422 9.9258,4.5879 1.313,0.5829 2.4246,1.0652 3.5879,1.5293 0.5816,0.232 1.149,0.4564 2.039,0.7539 0.8901,0.2975 0.3925,1.0241 6.7325,1.2519 10.4055,0.3737 17.3668,-6.4916 19.8027,-9.957 2.4364,-3.4661 3.0393,-5.5924 3.6328,-7.4375 1.1871,-3.6901 1.5588,-6.3535 1.9746,-9.4922 0.8316,-6.2773 1.2965,-13.8399 1.6114,-23.291 0.6297,-18.9022 0.5017,-44.8863 -0.4395,-75.4473 l -1.7402,-56.5214 a 22.374399,22.374399 0 0 0 -22.084,-21.6836 l -42.8613,-0.5313 z"
       transform="matrix(0.37110902,0,0,0.37110902,235.21691,130.6729)" />
    <path
       id="path3"
       style="fill:#d20f39;stroke-width:0.713298;stroke-linecap:round;stroke-linejoin:round;paint-order:markers stroke fill"
       d="m 916.83689,694.02074 c -0.33789,0.0142 -0.61452,0.0547 -0.82773,0.0608 -0.85287,0.0249 -1.23856,0.12851 -1.57071,0.2044 -0.66421,0.15175 -1.00133,0.27948 -1.36338,0.41023 -0.72407,0.26152 -1.39407,0.54697 -2.17737,0.89299 -1.56656,0.69202 -3.48371,1.60542 -5.49631,2.60357 -4.02519,1.99627 -7.85916,3.90792 -10.58822,5.78989 0.10016,-0.0691 -3.64489,2.14475 -6.45091,3.60599 -3.97088,2.06778 -7.25356,3.97465 -9.91051,7.16994 -2.65691,3.19524 -4.02193,6.7144 -5.71883,11.41884 -1.39725,3.87371 -4.20845,9.60816 -5.76305,11.99579 -3.52584,5.41508 -11.45084,13.43408 -16.4361,16.73108 -25.4734,16.84702 -60.70497,17.25378 -86.70178,0.97272 -12.31515,-7.71265 -20.97453,-17.88656 -26.94891,-31.77692 -1.10134,-2.56065 -2.17421,-4.77569 -3.25299,-6.65316 -1.07874,-1.87748 -1.49379,-3.28398 -4.34387,-5.29265 -2.06755,-1.4572 -3.71951,-2.19934 -6.79737,-3.81545 -3.07787,-1.61614 -6.87194,-3.55518 -10.5853,-5.41878 -3.71335,-1.86364 -7.33389,-3.64589 -10.08738,-4.9556 -1.3767,-0.6549 -2.52068,-1.18611 -3.44722,-1.5881 -0.46329,-0.20102 -0.83686,-0.36253 -1.3721,-0.55161 -0.26761,-0.0945 -0.49425,-0.20255 -1.28801,-0.35585 -0.39689,-0.0767 -0.83277,-0.2754 -2.37306,-0.0805 -0.77016,0.0975 -1.98688,0.25815 -3.55526,1.45904 -1.56838,1.20091 -2.88189,3.91877 -2.88189,5.837 0,1.99657 0.14437,1.57636 0.22976,2.01934 0.0854,0.44301 0.18975,0.93757 0.32183,1.53811 0.26415,1.20098 0.6347,2.80243 1.10464,4.78745 0.93987,3.96998 2.27409,9.45275 3.88069,15.97002 3.21324,13.03445 7.51373,30.19302 11.87838,47.43741 4.36465,17.2444 8.79231,34.57107 12.26181,47.93974 1.73479,6.68435 3.22935,12.37658 4.36128,16.59266 1.13192,4.21607 1.50492,5.99142 2.36002,8.24049 0.38622,1.01586 0.80839,1.89395 1.47138,2.87249 0.33148,0.48923 0.6939,1.0047 1.44094,1.69318 0.74705,0.68845 1.87688,2.15207 5.38253,2.08965 a 7.3391811,7.3391811 0 0 0 0.004,0 c 2.46764,-0.0451 1.59083,-0.19224 1.8693,-0.25803 0.27849,-0.0657 0.55055,-0.13501 0.87126,-0.21963 0.64135,-0.16922 1.45512,-0.39401 2.42813,-0.66829 1.94602,-0.54854 4.50926,-1.2922 7.26201,-2.10995 10.97566,-3.26044 24.28638,-5.85751 36.82894,-7.16195 10.1401,-1.05466 44.57359,-1.03079 54.22321,0.0137 17.07632,1.84842 34.93754,6.29516 39.46515,8.61597 0.53254,0.27294 1.03046,0.55421 1.98165,0.9002 0.95122,0.34602 2.78562,0.9697 5.29483,0.22255 2.50925,-0.74719 4.10008,-2.73132 4.70192,-3.76256 0.60186,-1.03123 0.76515,-1.5846 0.95968,-2.09622 1.37169,-3.6078 3.2,-10.52991 6.67199,-23.79806 3.47193,-13.26816 8.28129,-32.15998 14.52472,-57.04206 6.6014,-26.30891 10.47838,-41.9335 12.63652,-51.19927 1.0791,-4.6329 1.72796,-7.64444 2.09766,-9.8286 0.18484,-1.0921 0.31354,-1.94406 0.35007,-3.00439 0.0367,-1.06037 1.26259,-2.68702 -2.27375,-6.22332 -2.07168,-2.07167 -3.63817,-2.26695 -4.65193,-2.22449 z" />
    <path
       id="path2"
       style="fill:#eff1f5;fill-opacity:1;stroke-width:0.713298;stroke-linecap:round;stroke-linejoin:round;paint-order:markers stroke fill"
       d="m 895.07628,461.32379 c -39.42728,-0.0493 -87.40983,-0.0458 -134.43932,0.0231 -82.41546,0.12095 -125.1707,0.19543 -147.75283,0.40518 -11.29107,0.10487 -17.49715,0.23711 -21.36487,0.44938 -3.86772,0.21228 -6.65022,0.74759 -8.53333,1.68376 -3.71077,1.84481 -5.64235,3.52439 -7.88245,7.14893 -0.40685,0.65832 -1.83966,3.92689 -2.1614,6.48354 -0.32176,2.55665 -0.46371,5.8097 -0.60887,11.92477 -0.2903,12.23016 -0.47097,35.61972 -0.83426,82.41229 -0.40077,51.61782 -0.5758,153.93774 -0.39068,227.5007 0.16497,65.55708 0.25471,98.96791 0.48273,116.47171 0.11401,8.75188 0.25011,13.47268 0.49359,16.62019 0.2435,3.14748 1.18072,6.24209 1.7954,7.42652 1.92698,3.71326 4.91162,6.39198 8.38982,8.2391 l 3.2443,1.72291 a 8.8461565,8.8461565 0 0 0 4.15903,1.03345 l 216.48412,-0.2268 c 101.40721,-0.1062 155.55517,-0.18205 184.68906,-0.37987 14.56688,-0.0988 22.85178,-0.22483 27.84048,-0.41084 4.9886,-0.1861 6.499,0.40499 10.4903,-1.78029 5.5317,-3.02848 9.0408,-6.30955 10.9616,-13.1576 0.6126,-2.18437 0.3045,-1.66237 0.3204,-1.88387 0.017,-0.2215 0.022,-0.37355 0.028,-0.53929 0.014,-0.33158 0.023,-0.69026 0.033,-1.13941 0.019,-0.89837 0.038,-2.13045 0.056,-3.71758 0.036,-3.17428 0.071,-7.75061 0.1036,-13.59696 0.065,-11.69263 0.1249,-28.45378 0.1747,-49.05378 0.1,-41.20004 0.1616,-97.74807 0.1616,-159.70881 0,-105.30077 -0.019,-161.6514 -0.1862,-192.00831 -0.083,-15.17848 -0.2004,-23.83204 -0.3791,-29.02335 -0.1787,-5.19131 0.5832,-6.49107 -1.7687,-10.78463 -1.7144,-3.12983 -3.351,-4.83319 -5.6977,-6.89379 v -7.3e-4 l -2.529,-2.22086 a 8.8461565,8.8461565 0 0 0 -5.7376,-2.19911 l -46.4916,-0.52332 c -12.89825,-0.14522 -43.72288,-0.24634 -83.1502,-0.29574 z m -66.44083,67.63463 c 3.72683,-0.0495 7.90855,-0.0182 12.51914,0.0957 16.61915,0.41047 21.67229,1.44984 23.30304,2.28317 -0.1766,-0.0902 2.36694,1.71768 4.25904,3.6408 1.8921,1.92309 3.68912,4.46785 3.70964,4.50838 0.88825,1.75286 1.3082,2.88545 1.72292,7.52513 0.41467,4.63964 0.56601,12.27268 0.56899,24.80411 l 0.006,23.58282 a 8.8461565,8.8461565 0 0 0 8.65003,8.84068 l 20.36391,0.44937 c 11.04298,0.24382 23.85852,0.98352 25.18394,1.16406 4.30991,0.58717 6.51459,1.51995 7.4954,2.22305 0.98077,0.70307 1.48989,1.26073 2.25489,3.78213 -0.0818,-0.26947 0.91757,5.7625 1.35035,12.39373 0.4328,6.6312 0.71525,14.82344 0.72772,22.72316 0.01,6.43084 -0.19183,9.68546 0.66105,13.6629 0.85288,3.97747 2.52058,6.64976 4.74251,10.71651 -0.7958,-1.45657 0.0979,0.51665 -0.0754,3.54798 -0.17331,3.03138 -0.83415,7.29086 -2.01431,12.13138 -1.98606,8.1461 -20.03239,79.7904 -29.92935,118.80272 -4.92769,19.42422 -14.14203,54.30838 -16.07151,60.94743 -1.24843,4.2958 -2.53166,6.74059 -3.22252,7.93534 -1.46628,-0.36799 -4.19045,-1.19608 -8.86316,-3.05949 -13.41585,-5.35002 -35.29962,-11.04525 -50.01633,-13.04824 -13.31903,-1.81279 -40.86106,-1.95908 -55.3293,-0.42547 -16.70029,1.77015 -35.64392,6.53661 -58.11917,14.42905 -2.21292,0.77707 -4.42232,1.48822 -6.07038,1.97152 -0.0868,0.0252 -0.11783,0.0308 -0.20151,0.0551 -0.52378,-0.91353 -1.28748,-2.43496 -2.1868,-5.17597 -2.90978,-8.86898 -14.7426,-53.0566 -29.63217,-111.34284 -8.14584,-31.88731 -16.12026,-63.0631 -17.74294,-69.36476 -1.82006,-7.06833 -2.72164,-12.82787 -2.75578,-14.53126 -0.0922,-4.60394 -1.11688,-0.85548 1.49242,-5.08604 v 0 l 2.91161,-4.72077 a 8.8461565,8.8461565 0 0 0 1.3148,-4.44897 l 0.49291,-22.38251 c 0.30969,-14.06518 0.76774,-21.71073 1.55402,-25.1767 0.78623,-3.46598 0.7159,-2.99233 3.93431,-5.81814 2.82581,-2.48109 1.77435,-2.12861 4.6244,-2.64055 2.85,-0.51191 9.6048,-0.79907 22.61225,-1.07054 6.46736,-0.13497 12.35352,-0.26849 16.63975,-0.37475 2.14313,-0.053 3.88384,-0.0994 5.11362,-0.13627 0.6149,-0.0186 1.09693,-0.0345 1.47068,-0.0492 0.18684,-0.007 0.33752,-0.013 0.52619,-0.0238 0.0943,-0.006 0.18169,-0.01 0.40158,-0.0305 0.10992,-0.0104 0.22893,-0.0167 0.58275,-0.0726 0.17691,-0.0278 0.38822,-0.0518 0.92414,-0.19568 0.26797,-0.072 0.60894,-0.15803 1.25612,-0.44145 0.64718,-0.28341 3.54569,-2.8179 3.54585,-2.81808 1.4e-4,-2.3e-4 1.13785,-2.01167 1.288,-2.45645 0.15015,-0.44473 0.20619,-0.6956 0.2508,-0.8944 0.0892,-0.39761 0.10906,-0.5704 0.12899,-0.7125 0.0399,-0.28423 0.047,-0.38814 0.0552,-0.48129 0.0163,-0.1863 0.0192,-0.26245 0.0237,-0.34283 0.01,-0.1608 0.0148,-0.28597 0.0212,-0.43998 0.0126,-0.30799 0.0268,-0.69974 0.0428,-1.19814 0.0322,-0.9968 0.0733,-2.40277 0.12106,-4.13147 0.0954,-3.45745 0.21688,-8.19899 0.34209,-13.40417 0.12273,-5.10181 0.33014,-10.29156 0.56175,-14.46961 0.23161,-4.17805 0.63252,-7.9522 0.61318,-7.84476 0.92128,-5.1242 2.81527,-7.43584 3.47915,-7.8752 2.11888,-1.40219 2.10188,-1.52752 5.88411,-2.04689 3.78224,-0.51937 10.79917,-0.82757 23.20449,-1.12275 12.61611,-0.30019 18.59797,-0.28345 23.764,-1.20754 5.16602,-0.92412 9.28397,-4.03853 11.93784,-6.38788 0.99895,-0.88434 4.16432,-2.87026 4.11915,-2.85 0.45521,-0.20448 8.29522,-1.76644 19.4767,-1.91496 z" />
    <path
       style="fill:#000000;fill-opacity:1;stroke:#eff1f5;stroke-width:1.90008;stroke-dasharray:none;stroke-opacity:1"
       d="m 795.32524,1210.9093 c -37.83344,-11.5812 -43.67428,-61.0955 -9.22094,-78.1678 3.14752,-1.5597 4.44061,-2.4885 4.65544,-3.3444 0.43859,-1.7478 0.48105,-149.97377 0.043,-150.68235 -0.38749,-0.62705 -43.78927,-0.30366 -44.82097,0.3339 -1.18732,0.73376 -0.57983,85.66865 0.64284,89.88155 4.11032,14.1625 -2.65198,25.5512 -15.61032,26.2901 -12.2921,0.7009 -21.7361,-12.8983 -16.9357,-24.3871 0.41718,-0.9985 1.00174,-3.0614 1.29905,-4.5847 0.61718,-3.1618 1.07661,-87.16609 0.47996,-87.76325 -0.89854,-0.89933 -44.94415,-0.17783 -44.97895,0.73672 -0.74319,19.54046 -0.36202,86.68163 0.51682,91.02923 4.48315,22.1775 -18.90407,35.9773 -29.26535,17.2682 -1.585,-2.862 -2.06572,-51.1545 -0.95479,-95.91907 0.36596,-14.74642 0.78997,-13.59684 -4.9983,-13.55026 -69.3129,0.5586 -68.85892,0.62464 -80.43446,-11.70885 -10.59264,-11.28629 -11.45216,-14.81933 -11.49801,-47.26099 -0.0404,-28.70573 5.75231,-24.7967 -36.71195,-24.77341 -37.76375,0.0205 -36.96648,-0.0338 -40.10538,2.73459 -1.08353,0.95559 -3.95183,3.10838 -6.37404,4.78395 -2.42221,1.6756 -6.48151,4.76376 -9.02069,6.86247 -2.53917,2.09876 -5.34065,4.11838 -6.22551,4.48809 -2.23405,0.93345 -4.58323,3.77143 -5.40771,6.53297 -2.66221,8.91673 -5.19638,13.17496 -11.92937,20.04493 -29.19172,29.78598 -81.54368,-2.26106 -68.66811,-42.03492 10.71595,-33.10259 57.62599,-41.11301 73.04916,-12.47389 1.41621,2.62972 4.78322,0.38834 23.32691,-15.52836 6.89904,-5.92165 3.27641,-5.51033 49.88296,-5.66359 20.54836,-0.0676 37.5383,-0.30082 37.75546,-0.51831 0.47009,-0.47087 0.36268,-52.36947 -0.11,-53.13428 -0.21767,-0.35217 -13.59079,-0.50692 -40.14695,-0.46466 -39.70773,0.0632 -39.82711,0.0602 -42.1136,-1.04665 -9.80441,-4.7462 -9.723,-22.04577 0.12557,-26.68548 2.29654,-1.08196 2.93041,-1.10233 42.2266,-1.35751 39.89507,-0.25905 39.89507,-0.25905 40.21059,-2.84962 0.38652,-3.17297 0.0435,-54.73426 -0.36692,-55.14479 -3.33761,-3.33957 -128.75461,0.0394 -130.44433,3.51412 -18.53779,38.12417 -79.19517,22.92118 -79.27654,-19.86961 -0.0858,-45.11097 59.93327,-58.51184 80.64852,-18.00692 1.9274,3.76865 123.25253,7.31769 128.86469,3.76955 0.77567,-0.4904 1.25809,-56.8426 0.49714,-58.07393 -0.15478,-0.25043 -18.12064,-0.51808 -40.15413,-0.59822 -45.07348,-0.16401 -41.87271,0.14072 -45.82676,-4.36273 -6.00944,-6.84439 -4.26256,-20.42091 3.12441,-24.28246 2.9634,-1.54918 9.56476,-1.80979 45.83895,-1.80979 26.39361,0 36.55842,-0.16052 36.81856,-0.58143 0.19767,-0.31978 0.32879,-11.91915 0.2915,-25.77638 -0.0374,-13.8572 -0.0686,-26.30241 -0.0697,-27.65598 0,-2.46105 0,-2.46105 -41.2877,-2.46105 -40.28498,0 -41.3369,-0.0254 -43.39237,-1.03962 -2.20698,-1.0892 -15.65192,-11.07885 -21.78692,-16.18783 -4.24031,-3.53117 -3.91543,-3.47273 -5.76012,-1.03622 -23.21444,30.66172 -74.0231,13.84431 -73.96214,-24.48106 0.0673,-42.3993 53.72311,-59.074 77.02414,-23.937 2.20946,3.33175 3.38104,5.79949 6.19865,13.05652 0.96348,2.48148 1.71035,3.4746 3.70181,4.92211 1.37216,0.99738 6.30118,4.65811 10.95336,8.1349 15.42005,11.52417 10.04039,10.23312 43.4467,10.42654 49.97484,0.28934 44.86133,2.6617 44.87168,-20.818 0.014,-32.05046 1.51888,-38.67453 11.12394,-48.97188 11.15562,-11.95955 17.35333,-13.22703 63.1408,-12.91263 22.35538,0.15352 22.35538,0.15352 22.62603,-53.98981 0.29447,-58.9315 0.14143,-56.20553 3.36751,-59.97442 6.89488,-8.05519 21.22021,-6.23332 25.48068,3.24052 0.87804,1.95243 0.93199,5.19785 0.93199,56.04221 0,29.68333 0.14965,54.11975 0.33248,54.30312 0.18286,0.18331 10.38332,0.47014 22.66766,0.6374 24.30564,0.33086 22.49035,6.66256 22.53439,-78.60037 0,-3.68163 -0.28358,-5.21134 -1.74027,-9.32613 -6.25728,-17.67413 2.25003,-32.38029 17.88678,-30.92008 12.90413,1.205 19.27649,15.30494 14.00891,30.99682 -1.1909,3.54766 -1.68533,83.69145 -0.53895,87.35568 0.15807,0.5051 5.16735,0.64764 22.75865,0.64764 22.55597,0 22.55597,0 22.42484,-81.19436 -0.13111,-81.19435 -0.13111,-81.19435 -1.78934,-82.25121 -7.61692,-4.85463 -9.5791,-6.24354 -11.89077,-8.41673 -34.2776,-32.22378 3.70926,-88.57763 46.18136,-68.51052 23.44376,11.07664 32.1893,44.86066 16.25886,62.80805 -6.67741,7.52288 -7.62864,8.37291 -12.7417,11.38611 -6.06745,3.5757 -5.8546,3.19686 -6.11731,10.88733 -0.34847,10.20143 -0.3235,154.34471 0.027,154.69544 1.14267,1.14405 46.34082,0.60667 46.6279,-0.55437 1.45805,-5.89718 -0.15979,-83.87356 -1.81973,-87.70698 -5.53223,-12.77595 -0.041,-27.02232 11.56932,-30.0142 17.35462,-4.47223 29.82436,14.54954 20.93102,31.92891 -1.58319,3.09394 -2.50401,53.35759 -1.50506,82.15533 0.16645,4.79793 0.16645,4.79793 23.05623,4.66305 24.22654,-0.14279 24.9473,-3.27539 22.61918,-98.31826 -0.4112,-16.78852 7.13821,-24.1205 20.50635,-19.91572 9.99716,3.14455 9.66657,0.86302 9.31228,64.26677 -0.23779,42.54224 -0.1664,53.063 0.3625,53.39931 0.36223,0.2303 11.50011,0.35336 24.75103,0.27341 42.75816,-0.25797 47.60936,0.78235 59.10896,12.67539 10.5038,10.86333 11.44,14.56875 11.6821,46.23979 0.097,12.653 0.3019,23.13163 0.4562,23.28584 0.3079,0.30789 4.6903,0.36101 43.111,0.52267 31.1438,0.13103 25.219,1.7676 46.5173,-12.84942 9.6389,-6.61525 9.8761,-6.83399 10.9272,-10.07601 6.7879,-20.9371 19.7393,-31.60353 39.2203,-32.30055 46.6384,-1.66875 62.5364,59.69136 20.477,79.03327 -17.8966,8.23011 -36.6834,4.16718 -49.6466,-10.73681 -3.2194,-3.7015 -2.8246,-3.60782 -5.4344,-1.2901 -1.1398,1.01232 -3.1217,2.56764 -4.404,3.45631 -1.2824,0.8887 -3.847,2.80395 -5.6993,4.2562 -3.8201,2.99499 -9.1494,6.75714 -12.0906,8.53527 -3.0861,1.86577 -7.3431,2.05767 -46.834,2.11126 -25.0383,0.0342 -36.4924,0.22082 -36.7261,0.59905 -0.1867,0.30227 -0.2721,10.72184 -0.1895,23.15458 0.2143,32.24166 0.211,32.06621 0.6091,32.46497 0.1989,0.19916 17.2191,0.3303 37.8226,0.29128 41.6769,-0.0789 40.7846,-0.14563 44.8802,3.36013 6.3517,5.43685 6.7557,17.35281 0.7837,23.12018 -4.2535,4.10802 -3.0251,4.02803 -62.0133,4.03726 -22.2052,0.006 -22.2052,0.006 -22.0199,29.05983 0.1849,29.02149 0.6824,35.25257 2.4027,30.0913 0.094,-0.28152 24.7928,-0.39221 61.2502,-0.27453 61.0928,0.1972 61.0928,0.1972 62.482,-2.26628 7.4165,-13.15346 11.2668,-17.36358 19.5026,-21.32443 36.166,-17.39347 75.6021,18.19058 59.2889,53.49807 -1.632,3.5325 -2.4563,4.84638 -6.5612,10.45798 -10.1034,13.81174 -35.4928,19.39115 -51.0088,11.20928 -8.6575,-4.56523 -18.8889,-14.6911 -21.1677,-20.94908 -0.3402,-0.93467 -125.0679,-1.23209 -125.9994,-0.30043 -0.4117,0.41192 -0.3606,56.98649 0.053,57.39874 0.1593,0.15919 17.4652,0.29112 38.4574,0.29325 35.4502,0.006 38.3595,0.0705 40.8604,0.9392 10.946,3.80252 11.5815,21.9028 0.9733,27.71652 -1.4423,0.79028 -5.3146,0.89778 -40.7981,1.13222 -21.5625,0.1425 -39.3362,0.39088 -39.4972,0.55197 -0.318,0.31849 -0.5484,24.21007 -0.4023,41.74378 0.092,11.10325 0.8302,14.0663 2.7348,10.98456 0.198,-0.32043 0.6424,-0.3839 1.0263,-0.14658 0.3723,0.23015 16.8939,0.38082 36.7148,0.3348 44.4037,-0.10298 38.417,-1.52815 55.3781,13.18301 2.6306,2.28173 9.4584,7.35027 11.258,8.35738 0.6719,0.37607 2.093,-0.76593 6.8851,-5.53283 37.3798,-37.18351 94.7633,15.62811 61.431,56.53653 -21.0416,25.82431 -63.3905,16.52871 -73.279,-16.08479 -1.2514,-4.12757 -0.6042,-3.45829 -8.8515,-9.15389 -5.1546,-3.55972 -12.1189,-8.74358 -15.2297,-11.33621 -3.5282,-2.94045 -6.0153,-4.72385 -7.2536,-5.20124 -1.3672,-0.52703 -69.8251,-0.36993 -70.3567,0.16144 -0.2261,0.22585 -0.4934,11.34715 -0.5944,24.71404 -0.2655,35.15331 -1.0227,37.59729 -15.6597,50.54103 -7.2395,6.40205 -17.1085,8.30882 -42.6596,8.24222 -20.6693,-0.0535 -35.22493,0.36637 -36.32922,1.04885 -1.36754,0.84519 -1.2847,84.76243 0.0904,91.55493 2.86107,14.1344 -3.79371,24.4658 -15.75907,24.4658 -11.48904,0 -16.82582,-8.333 -15.1656,-23.6797 0.79685,-7.3655 1.02939,-92.36649 0.25485,-93.14102 -0.57197,-0.57198 -44.84826,-0.0304 -45.47558,0.55602 -1.80931,1.69194 -0.10486,84.9515 1.82855,89.3227 5.47896,12.3865 -2.38307,26.0622 -15.42718,26.8347 -13.50842,0.7999 -21.23243,-10.7124 -17.184,-25.6124 1.47707,-5.4362 2.55226,-90.28175 1.15505,-91.1452 -0.96577,-0.59697 -45.83402,-0.1153 -46.44782,0.49855 -0.0969,0.0969 -0.17234,7.72503 -0.16767,16.95138 0.006,9.22637 0.014,43.26497 0.0201,75.64107 0.0118,58.8662 0.0118,58.8662 4.02736,61.2088 39.51478,23.0538 25.76798,77.0757 -20.07707,78.8984 -4.89901,0.1947 -6.54185,0.058 -9.24015,-0.7677 z m 14.76725,-28.7778 c 14.45731,-4.2932 10.26715,-26.305 -5.00982,-26.3176 -14.19768,-0.012 -17.65164,24.0043 -3.78644,26.3278 1.08567,0.1819 2.20703,0.4098 2.492,0.5064 1.23429,0.4185 3.88726,0.2012 6.30426,-0.5166 z M 1028.3857,947.375 c 4.23,-1.25621 8.4604,-5.68341 9.3916,-9.82901 1.2952,-5.76551 1.0216,-459.06458 -0.2797,-463.32693 -1.2036,-3.94194 -3.9637,-7.29557 -7.3566,-8.93794 -3.1282,-1.51442 -441.6773,-1.70461 -446.76475,-0.19378 -3.4018,1.01022 -5.86814,3.19735 -7.60212,6.74149 -1.8242,3.72853 -2.392,463.9861 -0.57817,468.68634 1.21891,3.15864 4.78086,6.4703 7.43892,6.91609 1.09421,0.18356 2.22262,0.41277 2.50759,0.50944 2.1888,0.74234 440.72333,0.18263 443.24323,-0.5657 z M 893.94073,887.3718 c -3.60616,-1.21411 -5.41047,-1.94138 -10.36238,-4.17697 -5.45881,-2.4644 -15.88062,-5.60157 -26.68306,-8.03213 -2.70716,-0.60909 -6.08788,-1.43767 -7.51272,-1.84132 -3.97018,-1.12477 -14.61704,-2.59331 -24.61056,-3.39457 -18.77514,-1.50528 -48.38204,0.11347 -61.91512,3.38518 -1.70979,0.41333 -4.85735,1.13384 -6.9946,1.60108 -7.09767,1.55172 -27.45643,7.89874 -35.12856,10.95156 -12.31616,4.90079 -14.37215,2.54651 -21.35301,-24.45112 -0.51579,-1.99474 -2.46478,-9.02286 -4.33104,-15.61806 -3.11097,-10.99364 -9.35598,-34.78049 -10.93057,-41.63395 -0.36011,-1.5673 -1.26826,-4.94804 -2.01815,-7.51272 -0.74981,-2.56468 -1.92185,-7.11116 -2.60448,-10.10328 -1.1712,-5.13367 -2.39778,-9.96861 -10.18685,-40.15416 -1.76483,-6.83914 -3.85324,-15.11607 -4.64105,-18.39318 -1.97247,-8.20533 -5.50836,-21.69239 -6.99553,-26.68305 -0.6793,-2.27971 -1.717,-6.24332 -2.30608,-8.80801 -0.58898,-2.56469 -1.29995,-5.59569 -1.57994,-6.73555 -3.25351,-13.24669 -3.20228,-15.79997 0.42283,-21.05685 3.86929,-5.61112 3.7264,-4.60924 3.74418,-26.25513 0.0247,-30.49256 1.6975,-36.54016 11.84566,-42.83156 5.80295,-3.59752 5.67922,-3.58263 31.38895,-3.77758 17.31465,-0.13129 23.40405,-0.33547 23.69595,-0.79466 0.21611,-0.33983 0.4005,-9.36113 0.40984,-20.04733 0.0346,-39.83308 3.19129,-42.73325 46.33704,-42.57239 22.24567,0.0829 22.24567,0.0829 26.42402,-3.95566 8.0512,-7.78199 11.80682,-8.52253 41.9752,-8.27677 25.47855,0.20748 28.89535,1.05389 36.9152,9.1444 7.71458,7.78255 8.59424,12.49228 8.12638,43.50684 -0.3073,20.3643 -0.25147,24.08143 0.36719,24.47311 0.40119,0.25401 10.89809,0.46541 23.32643,0.46974 41.24274,0.0146 43.46865,2.15707 43.62795,41.99609 0.0942,23.55376 0.0942,23.55376 3.14231,27.87544 4.92964,6.9894 4.40313,11.16426 -6.44807,51.11692 -1.18629,4.36818 -2.34048,9.02246 -5.396,21.76096 -1.02542,4.27448 -2.79678,11.38564 -3.93649,15.80261 -1.13971,4.41693 -2.67474,10.47891 -3.41117,13.47104 -6.8731,27.9245 -8.8085,35.66743 -10.87832,43.52191 -1.31414,4.98691 -3.08244,11.86491 -3.92945,15.28449 -1.48611,5.99948 -4.61964,17.87494 -6.69895,25.38777 -0.55212,1.99474 -2.03293,7.62658 -3.29078,12.51513 -6.14846,23.89625 -8.89674,27.77398 -17.6062,24.84173 z M 735.1376,848.96362 c 2.42218,-0.63568 6.2692,-1.75679 8.54895,-2.49126 37.40733,-12.05243 110.46308,-10.13285 137.15383,3.60376 1.40689,0.72409 1.40689,0.72409 2.65558,-3.55444 4.02799,-13.80151 13.50404,-50.26924 19.48902,-75.00162 2.31012,-9.5463 4.76639,-19.57191 5.45832,-22.27905 4.62099,-18.07978 6.20581,-24.20833 7.50295,-29.01462 1.82845,-6.77458 3.9462,-17.80046 3.70097,-19.26842 -0.091,-0.54403 -4.6876,1.14453 -7.31332,2.68637 -1.28232,0.75303 -3.62118,1.95799 -5.1974,2.67767 -1.57626,0.71969 -4.02437,2.13183 -5.44022,3.13816 -1.41594,1.00628 -4.32302,2.71072 -6.46028,3.78768 -10.38623,5.23358 -10.71685,5.59768 -13.80033,15.19901 -14.49812,45.14459 -78.37948,63.06327 -123.01796,34.5065 -14.16338,-9.06075 -23.54037,-20.31483 -29.98832,-35.99143 -1.58235,-3.84701 -3.11013,-7.37029 -3.3951,-7.82938 -0.28498,-0.45918 -6.72594,-3.86647 -14.31337,-7.57177 -7.58735,-3.70539 -15.07239,-7.58474 -16.6334,-8.62085 -3.63165,-2.41063 -3.55371,-2.45071 -2.63028,1.35435 1.76548,7.27449 2.8294,11.87578 4.28278,18.52272 0.84117,3.847 2.5992,11.07475 3.90664,16.06165 2.99155,11.40982 6.30909,24.34126 14.22266,55.43862 3.44456,13.53583 7.07144,27.64157 8.05967,31.34612 0.98827,3.70456 2.38033,9.03415 3.09359,11.84362 2.97042,11.70105 3.6472,13.51026 4.85675,12.98406 0.46982,-0.20439 2.83605,-0.89172 5.25827,-1.52745 z m 95.18612,-107.10445 c 14.94437,-8.21379 22.18679,-18.98396 22.90882,-34.06761 0.47872,-10.00038 0.35156,-160.47348 -0.13599,-160.96196 -0.56715,-0.56816 -30.4048,-0.89026 -30.96087,-0.33421 -0.95908,0.95908 -1.30061,53.1316 -1.06735,163.04484 0.0887,41.79895 -1.01034,37.96122 9.25539,32.31894 z m -40.5363,-5.70062 c 0.67507,-16.81509 0.094,-175.37846 -0.64531,-176.11771 -0.85834,-0.8581 -31.37168,-0.99153 -32.22258,-0.14085 -0.74263,0.74235 -0.73723,145.0688 0.006,150.22311 1.00241,6.95532 1.83734,9.0152 6.57553,16.22254 3.91734,5.95871 7.96139,9.09311 22.41246,17.37108 3.61046,2.06818 3.47738,2.32785 3.8743,-7.55817 z m -65.25769,-58.19993 c 0.47507,-7.60328 0.0746,-54.96348 -0.4692,-55.50846 -0.48942,-0.49029 -30.40403,-0.87275 -32.8197,-0.41954 -2.74308,0.51462 -2.6651,44.03899 0.0826,46.13477 1.82454,1.39165 31.15923,15.74948 32.23491,15.77735 0.39552,0.0102 0.72279,-2.00565 0.97135,-5.98412 z m 171.56711,1.07656 c 5.65324,-2.70767 12.02736,-5.82591 14.16457,-6.9294 2.13726,-1.1035 4.98197,-2.41276 6.32156,-2.90948 4.53841,-1.68274 4.27535,-0.16182 4.10554,-23.73778 -0.0825,-11.45311 -0.24632,-20.92009 -0.36406,-21.03781 -0.38382,-0.38383 -34.10954,-0.041 -34.47939,0.35063 -0.28314,0.29966 -0.77613,55.97402 -0.51837,58.53916 0.09,0.89608 -0.59578,1.16836 10.77015,-4.27532 z M 404.94431,921.85192 c 13.02847,-6.64663 9.48155,-24.52982 -5.12794,-25.85455 -12.97011,-1.17612 -18.2789,17.83627 -7.15582,25.62715 2.69122,1.88503 8.81245,1.99834 12.28376,0.2274 z m 812.32379,-0.37695 c 12.2184,-7.16036 7.7889,-25.79561 -6.1005,-25.66556 -6.8377,0.064 -9.6759,1.62559 -12.1518,6.68573 -6.1635,12.59797 6.562,25.8308 18.2523,18.97983 z M 380.08645,718.56041 c 6.45541,-2.1122 8.95437,-5.60988 8.94335,-12.51749 -0.0154,-9.64625 -9.61576,-16.1591 -18.38811,-12.4744 -11.8761,4.98842 -10.37912,23.51912 2.07247,25.6546 3.33991,0.57282 3.69326,0.54106 7.37229,-0.66271 z m 857.01035,0.40289 c 15.4786,-4.1202 12.6542,-26.19714 -3.3518,-26.19714 -17.3297,0 -17.7509,25.89031 -0.437,26.87112 0.5698,0.0323 2.2749,-0.27102 3.7888,-0.67398 z M 403.97156,515.11981 c 5.51688,-2.23909 8.62387,-6.93889 8.60808,-13.02104 -0.0374,-14.40611 -19.86855,-18.49809 -25.10973,-5.18117 -4.54442,11.54658 5.52735,22.65626 16.50165,18.20221 z M 1217.117,514.373 c 12.4429,-7.31906 7.2007,-25.87783 -7.0979,-25.12739 -15.166,0.79605 -17.0217,21.56292 -2.358,26.38871 2.3284,0.76626 7.0882,0.13144 9.4559,-1.26132 z M 811.55996,243.62261 c 13.60558,-6.51622 8.80565,-25.48 -6.44097,-25.44736 -6.42191,0.0136 -12.47031,6.20047 -12.47031,12.7556 0,10.74525 9.56803,17.16658 18.91128,12.69176 z M 542.56344,1121.7167 c -16.9583,-2.8312 -31.89982,-20.5957 -32.64094,-38.8077 -1.67774,-41.2281 48.70601,-60.1959 74.52382,-28.0559 24.31843,30.2737 -2.69892,73.4053 -41.88288,66.8636 z m 15.55038,-29.6627 c 12.99775,-7.6171 6.64149,-25.9203 -8.52398,-24.545 -5.78506,0.5245 -9.36981,3.777 -11.12632,10.0948 -3.12716,11.2479 9.39803,20.4585 19.6503,14.4502 z m 492.55758,29.531 c -45.0188,-10.7955 -43.0042,-74.9667 2.5906,-82.5166 37.753,-6.2513 64.5425,44.607 36.8742,70.0032 -1.0456,0.9597 -2.9506,2.707 -4.2328,3.8829 -7.322,6.7134 -25.0829,11.0643 -35.232,8.6305 z m 14.654,-29.1454 c 5.643,-2.8182 7.6252,-5.6973 7.6252,-11.0766 0,-17.4359 -24.4908,-19.2194 -26.2635,-1.9125 -1.0492,10.2423 9.4656,17.57 18.6383,12.9891 z M 408.32546,821.74615 c -9.54982,-1.88256 -16.71347,-11.42061 -16.69385,-22.22702 0.0475,-26.17374 37.38286,-29.65579 42.822,-3.99379 3.28536,15.50054 -10.47241,29.3071 -26.12815,26.22081 z m 784.52394,0.0339 c -25.7692,-3.77983 -22.9203,-42.78801 3.1541,-43.186 27.5814,-0.42091 31.5931,38.89886 4.4038,43.16559 -3.6896,0.57898 -3.7483,0.57915 -7.5579,0.0201 z M 406.27326,636.01158 c -11.48377,-3.09291 -17.7991,-17.51127 -13.10403,-29.91737 6.38871,-16.88139 32.06766,-17.33106 39.68392,-0.69501 8.16126,17.82658 -7.42071,35.7725 -26.57989,30.61238 z m 786.88044,0.46142 c -10.563,-1.59256 -16.8835,-8.78008 -17.4905,-19.88976 -1.5985,-29.26043 40.8502,-32.06406 43.6171,-2.88077 1.2961,13.66996 -11.6502,24.95315 -26.1266,22.77053 z M 544.04887,369.64831 c -43.48712,-5.90697 -45.04833,-72.3463 -1.9094,-81.2569 50.85062,-10.50349 72.40022,63.04454 23.28265,79.46281 -7.63587,2.55241 -12.67596,2.97549 -21.37325,1.79409 z m 12.19728,-28.4412 c 12.57104,-5.25253 10.15708,-23.6108 -3.34004,-25.40124 -15.05231,-1.99678 -20.69311,20.38011 -6.42296,25.47969 2.57023,0.91845 7.47125,0.87913 9.763,-0.0785 z m 495.85515,28.78217 c -21.8813,-2.77 -38.9353,-26.6883 -34.373,-48.20822 7.0308,-33.16251 46.2622,-45.89697 70.3618,-22.83932 30.1925,28.88716 6.1351,76.38016 -35.9888,71.04754 z m 11.4599,-28.79538 c 15.2104,-4.51697 9.8209,-27.27244 -6.0182,-25.4109 -3.5122,0.41285 -6.433,1.87814 -8.1001,4.0636 -8.7193,11.43182 0.5108,25.38831 14.1183,21.3473 z"
       id="path1"
       sodipodi:nodetypes="sssssssssscssssssssssssssssssssssssccsssssssssscscssssssssssssssssscssssssscsssscssssssssssssssssssssssssssssssscssssssssssscssssssssssssssssssssssssssssssscccssssssssssssssssssssssssssssssssssscssssssssssssssssssssssssscsssssssssssssssssssssssssssssssssssssssssssssssssssssssssssssssssssssssssssssscsssssssssssssssssssssssssssssssssssscssccsscssssssss" />
  </g>
</svg>
