<?xml version="1.0" encoding="UTF-8" standalone="no"?>
<!-- Created with Inkscape (http://www.inkscape.org/) -->

<svg
   version="1.1"
   id="svg1"
   width="1023.9999"
   height="1024"
   viewBox="0 0 1023.9999 1024"
   sodipodi:docname="alpha_french_fries.svg"
   inkscape:version="1.4 (e7c3feb100, 2024-10-09)"
   inkscape:export-filename="alpha_french_fries.png"
   inkscape:export-xdpi="96"
   inkscape:export-ydpi="96"
   xmlns:inkscape="http://www.inkscape.org/namespaces/inkscape"
   xmlns:sodipodi="http://sodipodi.sourceforge.net/DTD/sodipodi-0.dtd"
   xmlns="http://www.w3.org/2000/svg"
   xmlns:svg="http://www.w3.org/2000/svg">
  <defs
     id="defs1" />
  <sodipodi:namedview
     id="namedview1"
     pagecolor="#505050"
     bordercolor="#eeeeee"
     borderopacity="1"
     inkscape:showpageshadow="0"
     inkscape:pageopacity="0"
     inkscape:pagecheckerboard="0"
     inkscape:deskcolor="#505050"
     inkscape:zoom="0.46526903"
     inkscape:cx="329.91665"
     inkscape:cy="692.07271"
     inkscape:window-width="1894"
     inkscape:window-height="1116"
     inkscape:window-x="10"
     inkscape:window-y="39"
     inkscape:window-maximized="0"
     inkscape:current-layer="g1" />
  <g
     inkscape:groupmode="layer"
     inkscape:label="Image"
     id="g1"
     transform="translate(-293.23539,-188.70192)">
    <path
       id="path7"
       style="fill:#df8e1d;fill-opacity:1;stroke-width:1.92207;stroke-linecap:round;stroke-linejoin:round;paint-order:markers stroke fill"
       sodipodi:type="inkscape:offset"
       inkscape:radius="36.462078"
       inkscape:original="M 1838.0273 1335.7598 L 1796.0078 1335.7891 C 1772.8965 1335.8058 1752.8927 1336.5126 1751.5566 1337.3613 C 1749.7451 1338.5121 1748.7845 1358.1135 1747.7773 1414.4512 L 1747.7773 1414.4531 C 1747.0345 1456.0037 1747.1436 1489.998 1748.0195 1489.998 C 1750.0304 1489.998 1832.2169 1450.4865 1835.5566 1447.9141 C 1837.4294 1446.4716 1838.0273 1432.652 1838.0273 1390.8848 L 1838.0273 1335.7598 z "
       d="m 1838.002,1299.2969 -42.0196,0.029 c -11.9197,0.01 -22.9944,0.1918 -31.6543,0.498 -4.3299,0.1531 -7.9974,0.327 -11.2988,0.5801 -1.6507,0.1266 -3.1469,0.2523 -5.1719,0.5352 -1.0125,0.1414 -2.1179,0.2971 -3.9961,0.7285 -1.8781,0.4313 -3.5656,-0.3498 -11.8554,4.916 a 36.465724,36.465724 0 0 0 -0,0 c -19.3831,12.3136 -15.3615,19.1207 -16.3203,22.7168 -0.9588,3.5961 -1.2261,5.7946 -1.5195,8.1387 -0.587,4.6881 -0.899,9.5035 -1.2168,15.9863 -0.6356,12.9655 -1.121,32.0726 -1.627,60.373 a 36.465724,36.465724 0 0 0 -0.01,0.6524 v 0 c -0.3656,20.6856 -0.529,39.5593 -0.4844,53.4707 0.023,7.0406 0.092,12.7779 0.2344,17.2696 0.071,2.2458 0.1389,4.0685 0.33,6.332 0.096,1.1317 0.1396,2.177 0.6368,4.8203 0.2485,1.3216 0.3723,2.832 1.9902,6.9336 0.8089,2.0508 1.7547,4.8487 5.5801,9.5898 3.8253,4.7412 13.6634,13.5918 28.4179,13.5918 14.9885,0 11.1968,-1.7198 12.4258,-2.1484 1.2291,-0.4286 1.9027,-0.7046 2.586,-0.9824 1.3665,-0.5557 2.5656,-1.0801 3.9785,-1.7071 2.8258,-1.2538 6.3282,-2.8613 10.459,-4.7851 8.2615,-3.8476 18.91,-8.9063 29.6191,-14.0547 10.7091,-5.1484 21.442,-10.3694 29.8535,-14.5371 4.2058,-2.0839 7.8106,-3.8933 10.6973,-5.3828 1.4433,-0.7448 2.6872,-1.3973 3.9297,-2.0781 1.2424,-0.6809 0.6477,0.3217 6.2382,-3.9844 11.0115,-8.4815 11.8013,-14.89 13.0469,-18.6953 1.2456,-3.8053 1.6069,-6.2033 1.9453,-8.4825 0.6769,-4.5582 0.9045,-8.4762 1.1231,-13.5234 0.4372,-10.0944 0.5683,-24.1572 0.5683,-45.2148 v -55.125 a 36.465724,36.465724 0 0 0 -36.4882,-36.4629 z"
       transform="matrix(0.37110902,0,0,0.37110902,235.21691,130.6729)" />
    <path
       id="path6"
       style="fill:#df8e1d;fill-opacity:1;stroke-width:1.92207;stroke-linecap:round;stroke-linejoin:round;paint-order:markers stroke fill"
       sodipodi:type="inkscape:offset"
       inkscape:radius="28.104675"
       inkscape:original="M 1581.5781 1129.75 L 1580.2812 1148.0293 C 1578.0833 1178.995 1578.738 1641.3586 1580.9883 1647.2773 C 1583.395 1653.6074 1584.1095 1653.4169 1605.5645 1640.6973 C 1636.1479 1622.5659 1655.417 1596.5218 1660.002 1567.1191 C 1663.1627 1546.8504 1662.7477 1134.7536 1659.5645 1132.6934 C 1658.205 1131.8135 1640.1023 1130.7913 1619.3359 1130.4219 L 1581.5781 1129.75 z "
       d="m 1582.0781,1101.6504 a 28.107486,28.107486 0 0 0 -28.5351,26.1113 l -1.2969,18.2793 c -0.9061,12.7675 -0.9902,44.2244 -1.2031,92.1016 -0.2129,47.8786 -0.2668,108.7989 -0.1817,168.9433 0.085,60.1444 0.3101,119.4978 0.6543,164.2579 0.1721,22.38 0.3736,41.0973 0.6055,54.5371 0.1159,6.7198 0.2386,12.0982 0.3769,16.1211 0.069,2.0114 0.137,3.6518 0.2364,5.205 0.05,0.7766 0.1005,1.5036 0.2148,2.541 0.1143,1.0375 -0.9554,0.3505 1.7696,7.5176 0.7824,2.0581 1.0422,6.8164 9.1992,14.2344 8.1569,7.418 23.2438,8.4494 29.4824,6.7793 12.4772,-3.3402 15.7038,-7.008 26.4961,-13.4063 36.2844,-21.5112 61.8323,-54.6731 67.875,-93.4238 1.5192,-9.7425 1.0581,-14.6967 1.3476,-28.125 0.2896,-13.4282 0.5207,-31.2745 0.6993,-52.1035 0.357,-41.658 0.5025,-95.1938 0.4492,-148.1719 -0.053,-52.978 -0.3052,-105.3727 -0.7442,-144.7715 -0.2194,-19.6993 -0.4852,-36.124 -0.8027,-47.914 -0.1587,-5.895 -0.3238,-10.5859 -0.5312,-14.2598 -0.1038,-1.8369 -0.2007,-3.3438 -0.4043,-5.164 -0.1018,-0.9102 -0.1844,-1.8062 -0.5743,-3.6543 -0.1949,-0.9241 -0.3974,-2.0316 -1.2402,-4.2911 -0.8427,-2.2593 0.093,-6.6271 -11.1348,-13.8945 h -0 c -11.0683,-7.1634 -10.1195,-4.1598 -11.8379,-4.4512 -1.7185,-0.2914 -3.0515,-0.4399 -4.5234,-0.5898 -2.9439,-0.2998 -6.2577,-0.5316 -10.1602,-0.752 -7.8049,-0.4407 -17.7776,-0.794 -28.4766,-0.9843 z"
       transform="matrix(0.37110902,0,0,0.37110902,235.21691,130.6729)" />
    <path
       id="path5"
       style="fill:#df8e1d;fill-opacity:1;stroke-width:1.92207;stroke-linecap:round;stroke-linejoin:round;paint-order:markers stroke fill"
       sodipodi:type="inkscape:offset"
       inkscape:radius="20.358978"
       inkscape:original="M 1408.8164 1165.6992 L 1409.3652 1368.1309 L 1409.9121 1570.5605 L 1418.6016 1587.6953 C 1429.6356 1609.4545 1441.8897 1621.7684 1468.4805 1637.8184 C 1479.7485 1644.6198 1489.8676 1649.8872 1490.9668 1649.5234 C 1492.1571 1649.1296 1493.5223 1633.3325 1494.3438 1610.4629 C 1495.7815 1570.4286 1494.4219 1177.928 1492.8184 1170.1484 C 1491.9024 1165.7092 1491.8502 1165.6992 1450.3594 1165.6992 L 1408.8164 1165.6992 z "
       d="m 1408.8164,1145.3398 a 20.361014,20.361014 0 0 0 -20.3594,20.4141 l 0.5489,202.4316 0.5468,202.4297 a 20.361014,20.361014 0 0 0 2.2012,9.1543 l 8.6895,17.1348 c 12.3825,24.4179 29.3503,41.3434 57.5156,58.3437 5.9516,3.5925 11.5582,6.7634 16.1777,9.168 2.3098,1.2023 4.3173,2.1997 6.4102,3.0977 1.0464,0.449 2.0535,0.8763 3.6914,1.373 1.6378,0.4967 1.6087,3.7753 13.123,-0.035 9.4328,-3.1208 10.7035,-7.9359 11.8282,-10.0625 1.1247,-2.1266 1.4439,-3.3016 1.746,-4.3184 0.6044,-2.0336 0.8108,-3.3157 1.0411,-4.7305 0.4605,-2.8295 0.7787,-5.853 1.0996,-9.5644 0.6416,-7.4228 1.194,-17.3114 1.6133,-28.9824 0.8127,-22.6319 0.7514,-128.9015 0.3906,-233.0547 -0.1804,-52.0767 -0.4561,-103.1391 -0.7871,-141.7129 -0.1655,-19.2869 -0.3438,-35.4449 -0.5332,-47.0977 -0.095,-5.8263 -0.1924,-10.5141 -0.295,-13.9922 -0.051,-1.739 -0.1015,-3.1637 -0.164,-4.3906 -0.063,-1.2269 0.3469,-0.5889 -0.543,-4.9062 a 20.361014,20.361014 0 0 0 0,-0.01 c -0.2364,-1.1458 -1.8984,-9.1459 -8.4121,-14.3535 -6.5137,-5.2077 -11.3955,-5.246 -15.418,-5.668 -8.0448,-0.8438 -17.8213,-0.6719 -38.5683,-0.6719 z"
       transform="matrix(0.37110902,0,0,0.37110902,235.21691,130.6729)" />
    <path
       id="path4"
       style="fill:#df8e1d;fill-opacity:1;stroke-width:1.92207;stroke-linecap:round;stroke-linejoin:round;paint-order:markers stroke fill"
       sodipodi:type="inkscape:offset"
       inkscape:radius="22.372162"
       inkscape:original="M 1235.2031 1329.75 L 1233.6094 1341.1582 C 1231.6168 1355.41 1232.1153 1428.5648 1234.2871 1440.5625 L 1235.8984 1449.4609 L 1276.4355 1469.6484 C 1298.7311 1480.7509 1317.9978 1489.871 1319.25 1489.916 C 1323.1221 1490.0561 1324.5298 1447.7924 1322.668 1387.3379 L 1320.9277 1330.8145 L 1278.0664 1330.2832 L 1235.2031 1329.75 z "
       d="m 1235.4805,1307.3789 a 22.374399,22.374399 0 0 0 -22.4336,19.2754 l -1.5938,11.4082 c -1.7583,12.5781 -1.587,31.8648 -1.4375,53.7949 0.075,10.9656 0.2786,21.8453 0.6114,30.9336 0.3327,9.0883 0.4204,14.9829 1.6464,21.7559 a 22.374399,22.374399 0 0 0 0,0 l 1.6114,8.8985 a 22.374399,22.374399 0 0 0 12.041,16.039 l 40.5371,20.1875 a 22.374399,22.374399 0 0 0 0,0 c 11.2615,5.6079 21.7446,10.7091 29.6992,14.4746 3.9773,1.8827 7.2998,3.422 9.9258,4.5879 1.313,0.5829 2.4246,1.0652 3.5879,1.5293 0.5816,0.232 1.149,0.4564 2.039,0.7539 0.8901,0.2975 0.3925,1.0241 6.7325,1.2519 10.4055,0.3737 17.3668,-6.4916 19.8027,-9.957 2.4364,-3.4661 3.0393,-5.5924 3.6328,-7.4375 1.1871,-3.6901 1.5588,-6.3535 1.9746,-9.4922 0.8316,-6.2773 1.2965,-13.8399 1.6114,-23.291 0.6297,-18.9022 0.5017,-44.8863 -0.4395,-75.4473 l -1.7402,-56.5214 a 22.374399,22.374399 0 0 0 -22.084,-21.6836 l -42.8613,-0.5313 z"
       transform="matrix(0.37110902,0,0,0.37110902,235.21691,130.6729)" />
    <path
       id="path3"
       style="fill:#d20f39;stroke-width:0.713298;stroke-linecap:round;stroke-linejoin:round;paint-order:markers stroke fill"
       d="m 916.83689,694.02074 c -0.33789,0.0142 -0.61452,0.0547 -0.82773,0.0608 -0.85287,0.0249 -1.23856,0.12851 -1.57071,0.2044 -0.66421,0.15175 -1.00133,0.27948 -1.36338,0.41023 -0.72407,0.26152 -1.39407,0.54697 -2.17737,0.89299 -1.56656,0.69202 -3.48371,1.60542 -5.49631,2.60357 -4.02519,1.99627 -7.85916,3.90792 -10.58822,5.78989 0.10016,-0.0691 -3.64489,2.14475 -6.45091,3.60599 -3.97088,2.06778 -7.25356,3.97465 -9.91051,7.16994 -2.65691,3.19524 -4.02193,6.7144 -5.71883,11.41884 -1.39725,3.87371 -4.20845,9.60816 -5.76305,11.99579 -3.52584,5.41508 -11.45084,13.43408 -16.4361,16.73108 -25.4734,16.84702 -60.70497,17.25378 -86.70178,0.97272 -12.31515,-7.71265 -20.97453,-17.88656 -26.94891,-31.77692 -1.10134,-2.56065 -2.17421,-4.77569 -3.25299,-6.65316 -1.07874,-1.87748 -1.49379,-3.28398 -4.34387,-5.29265 -2.06755,-1.4572 -3.71951,-2.19934 -6.79737,-3.81545 -3.07787,-1.61614 -6.87194,-3.55518 -10.5853,-5.41878 -3.71335,-1.86364 -7.33389,-3.64589 -10.08738,-4.9556 -1.3767,-0.6549 -2.52068,-1.18611 -3.44722,-1.5881 -0.46329,-0.20102 -0.83686,-0.36253 -1.3721,-0.55161 -0.26761,-0.0945 -0.49425,-0.20255 -1.28801,-0.35585 -0.39689,-0.0767 -0.83277,-0.2754 -2.37306,-0.0805 -0.77016,0.0975 -1.98688,0.25815 -3.55526,1.45904 -1.56838,1.20091 -2.88189,3.91877 -2.88189,5.837 0,1.99657 0.14437,1.57636 0.22976,2.01934 0.0854,0.44301 0.18975,0.93757 0.32183,1.53811 0.26415,1.20098 0.6347,2.80243 1.10464,4.78745 0.93987,3.96998 2.27409,9.45275 3.88069,15.97002 3.21324,13.03445 7.51373,30.19302 11.87838,47.43741 4.36465,17.2444 8.79231,34.57107 12.26181,47.93974 1.73479,6.68435 3.22935,12.37658 4.36128,16.59266 1.13192,4.21607 1.50492,5.99142 2.36002,8.24049 0.38622,1.01586 0.80839,1.89395 1.47138,2.87249 0.33148,0.48923 0.6939,1.0047 1.44094,1.69318 0.74705,0.68845 1.87688,2.15207 5.38253,2.08965 a 7.3391811,7.3391811 0 0 0 0.004,0 c 2.46764,-0.0451 1.59083,-0.19224 1.8693,-0.25803 0.27849,-0.0657 0.55055,-0.13501 0.87126,-0.21963 0.64135,-0.16922 1.45512,-0.39401 2.42813,-0.66829 1.94602,-0.54854 4.50926,-1.2922 7.26201,-2.10995 10.97566,-3.26044 24.28638,-5.85751 36.82894,-7.16195 10.1401,-1.05466 44.57359,-1.03079 54.22321,0.0137 17.07632,1.84842 34.93754,6.29516 39.46515,8.61597 0.53254,0.27294 1.03046,0.55421 1.98165,0.9002 0.95122,0.34602 2.78562,0.9697 5.29483,0.22255 2.50925,-0.74719 4.10008,-2.73132 4.70192,-3.76256 0.60186,-1.03123 0.76515,-1.5846 0.95968,-2.09622 1.37169,-3.6078 3.2,-10.52991 6.67199,-23.79806 3.47193,-13.26816 8.28129,-32.15998 14.52472,-57.04206 6.6014,-26.30891 10.47838,-41.9335 12.63652,-51.19927 1.0791,-4.6329 1.72796,-7.64444 2.09766,-9.8286 0.18484,-1.0921 0.31354,-1.94406 0.35007,-3.00439 0.0367,-1.06037 1.26259,-2.68702 -2.27375,-6.22332 -2.07168,-2.07167 -3.63817,-2.26695 -4.65193,-2.22449 z" />
    <path
       id="path2"
       style="fill:#eff1f5;fill-opacity:1;stroke-width:0.713298;stroke-linecap:round;stroke-linejoin:round;paint-order:markers stroke fill"
       d="m 895.07628,461.32379 c -39.42728,-0.0493 -87.40983,-0.0458 -134.43932,0.0231 -82.41546,0.12095 -125.1707,0.19543 -147.75283,0.40518 -11.29107,0.10487 -17.49715,0.23711 -21.36487,0.44938 -3.86772,0.21228 -6.65022,0.74759 -8.53333,1.68376 -3.71077,1.84481 -5.64235,3.52439 -7.88245,7.14893 -0.40685,0.65832 -1.83966,3.92689 -2.1614,6.48354 -0.32176,2.55665 -0.46371,5.8097 -0.60887,11.92477 -0.2903,12.23016 -0.47097,35.61972 -0.83426,82.41229 -0.40077,51.61782 -0.5758,153.93774 -0.39068,227.5007 0.16497,65.55708 0.25471,98.96791 0.48273,116.47171 0.11401,8.75188 0.25011,13.47268 0.49359,16.62019 0.2435,3.14748 1.18072,6.24209 1.7954,7.42652 1.92698,3.71326 4.91162,6.39198 8.38982,8.2391 l 3.2443,1.72291 a 8.8461565,8.8461565 0 0 0 4.15903,1.03345 l 216.48412,-0.2268 c 101.40721,-0.1062 155.55517,-0.18205 184.68906,-0.37987 14.56688,-0.0988 22.85178,-0.22483 27.84048,-0.41084 4.9886,-0.1861 6.499,0.40499 10.4903,-1.78029 5.5317,-3.02848 9.0408,-6.30955 10.9616,-13.1576 0.6126,-2.18437 0.3045,-1.66237 0.3204,-1.88387 0.017,-0.2215 0.022,-0.37355 0.028,-0.53929 0.014,-0.33158 0.023,-0.69026 0.033,-1.13941 0.019,-0.89837 0.038,-2.13045 0.056,-3.71758 0.036,-3.17428 0.071,-7.75061 0.1036,-13.59696 0.065,-11.69263 0.1249,-28.45378 0.1747,-49.05378 0.1,-41.20004 0.1616,-97.74807 0.1616,-159.70881 0,-105.30077 -0.019,-161.6514 -0.1862,-192.00831 -0.083,-15.17848 -0.2004,-23.83204 -0.3791,-29.02335 -0.1787,-5.19131 0.5832,-6.49107 -1.7687,-10.78463 -1.7144,-3.12983 -3.351,-4.83319 -5.6977,-6.89379 v -7.3e-4 l -2.529,-2.22086 a 8.8461565,8.8461565 0 0 0 -5.7376,-2.19911 l -46.4916,-0.52332 c -12.89825,-0.14522 -43.72288,-0.24634 -83.1502,-0.29574 z m -66.44083,67.63463 c 3.72683,-0.0495 7.90855,-0.0182 12.51914,0.0957 16.61915,0.41047 21.67229,1.44984 23.30304,2.28317 -0.1766,-0.0902 2.36694,1.71768 4.25904,3.6408 1.8921,1.92309 3.68912,4.46785 3.70964,4.50838 0.88825,1.75286 1.3082,2.88545 1.72292,7.52513 0.41467,4.63964 0.56601,12.27268 0.56899,24.80411 l 0.006,23.58282 a 8.8461565,8.8461565 0 0 0 8.65003,8.84068 l 20.36391,0.44937 c 11.04298,0.24382 23.85852,0.98352 25.18394,1.16406 4.30991,0.58717 6.51459,1.51995 7.4954,2.22305 0.98077,0.70307 1.48989,1.26073 2.25489,3.78213 -0.0818,-0.26947 0.91757,5.7625 1.35035,12.39373 0.4328,6.6312 0.71525,14.82344 0.72772,22.72316 0.01,6.43084 -0.19183,9.68546 0.66105,13.6629 0.85288,3.97747 2.52058,6.64976 4.74251,10.71651 -0.7958,-1.45657 0.0979,0.51665 -0.0754,3.54798 -0.17331,3.03138 -0.83415,7.29086 -2.01431,12.13138 -1.98606,8.1461 -20.03239,79.7904 -29.92935,118.80272 -4.92769,19.42422 -14.14203,54.30838 -16.07151,60.94743 -1.24843,4.2958 -2.53166,6.74059 -3.22252,7.93534 -1.46628,-0.36799 -4.19045,-1.19608 -8.86316,-3.05949 -13.41585,-5.35002 -35.29962,-11.04525 -50.01633,-13.04824 -13.31903,-1.81279 -40.86106,-1.95908 -55.3293,-0.42547 -16.70029,1.77015 -35.64392,6.53661 -58.11917,14.42905 -2.21292,0.77707 -4.42232,1.48822 -6.07038,1.97152 -0.0868,0.0252 -0.11783,0.0308 -0.20151,0.0551 -0.52378,-0.91353 -1.28748,-2.43496 -2.1868,-5.17597 -2.90978,-8.86898 -14.7426,-53.0566 -29.63217,-111.34284 -8.14584,-31.88731 -16.12026,-63.0631 -17.74294,-69.36476 -1.82006,-7.06833 -2.72164,-12.82787 -2.75578,-14.53126 -0.0922,-4.60394 -1.11688,-0.85548 1.49242,-5.08604 v 0 l 2.91161,-4.72077 a 8.8461565,8.8461565 0 0 0 1.3148,-4.44897 l 0.49291,-22.38251 c 0.30969,-14.06518 0.76774,-21.71073 1.55402,-25.1767 0.78623,-3.46598 0.7159,-2.99233 3.93431,-5.81814 2.82581,-2.48109 1.77435,-2.12861 4.6244,-2.64055 2.85,-0.51191 9.6048,-0.79907 22.61225,-1.07054 6.46736,-0.13497 12.35352,-0.26849 16.63975,-0.37475 2.14313,-0.053 3.88384,-0.0994 5.11362,-0.13627 0.6149,-0.0186 1.09693,-0.0345 1.47068,-0.0492 0.18684,-0.007 0.33752,-0.013 0.52619,-0.0238 0.0943,-0.006 0.18169,-0.01 0.40158,-0.0305 0.10992,-0.0104 0.22893,-0.0167 0.58275,-0.0726 0.17691,-0.0278 0.38822,-0.0518 0.92414,-0.19568 0.26797,-0.072 0.60894,-0.15803 1.25612,-0.44145 0.64718,-0.28341 3.54569,-2.8179 3.54585,-2.81808 1.4e-4,-2.3e-4 1.13785,-2.01167 1.288,-2.45645 0.15015,-0.44473 0.20619,-0.6956 0.2508,-0.8944 0.0892,-0.39761 0.10906,-0.5704 0.12899,-0.7125 0.0399,-0.28423 0.047,-0.38814 0.0552,-0.48129 0.0163,-0.1863 0.0192,-0.26245 0.0237,-0.34283 0.01,-0.1608 0.0148,-0.28597 0.0212,-0.43998 0.0126,-0.30799 0.0268,-0.69974 0.0428,-1.19814 0.0322,-0.9968 0.0733,-2.40277 0.12106,-4.13147 0.0954,-3.45745 0.21688,-8.19899 0.34209,-13.40417 0.12273,-5.10181 0.33014,-10.29156 0.56175,-14.46961 0.23161,-4.17805 0.63252,-7.9522 0.61318,-7.84476 0.92128,-5.1242 2.81527,-7.43584 3.47915,-7.8752 2.11888,-1.40219 2.10188,-1.52752 5.88411,-2.04689 3.78224,-0.51937 10.79917,-0.82757 23.20449,-1.12275 12.61611,-0.30019 18.59797,-0.28345 23.764,-1.20754 5.16602,-0.92412 9.28397,-4.03853 11.93784,-6.38788 0.99895,-0.88434 4.16432,-2.87026 4.11915,-2.85 0.45521,-0.20448 8.29522,-1.76644 19.4767,-1.91496 z" />
    <path
       style="fill:#000000;fill-opacity:1;stroke:#eff1f5;stroke-width:1.85555;stroke-dasharray:none;stroke-opacity:1"
       d="m 795.5575,1198.9514 c -36.94672,-11.3097 -42.65067,-59.6636 -9.00482,-76.3358 3.07375,-1.5231 4.33653,-2.4302 4.54632,-3.266 0.42832,-1.7068 0.46978,-146.45874 0.042,-147.15071 -0.37841,-0.61235 -42.76296,-0.29654 -43.77049,0.32608 -1.15949,0.71656 -0.56623,83.66073 0.62778,87.77493 4.01398,13.8306 -2.58982,24.9524 -15.24446,25.674 -12.004,0.6845 -21.22666,-12.5961 -16.53877,-23.8156 0.4074,-0.9751 0.97827,-2.9897 1.2686,-4.4772 0.60272,-3.0878 1.05139,-85.12316 0.46872,-85.70632 -0.87749,-0.87826 -43.89078,-0.17368 -43.92477,0.71944 -0.72577,19.08244 -0.35352,84.65008 0.50472,88.89568 4.37807,21.6578 -18.46101,35.1342 -28.57945,16.8636 -1.54786,-2.7949 -2.0173,-49.9557 -0.93241,-93.67108 0.35738,-14.40075 0.77146,-13.27812 -4.88116,-13.23263 -67.68838,0.54551 -67.24504,0.61001 -78.54928,-11.43442 -10.34438,-11.02178 -11.18375,-14.47201 -11.22852,-46.15335 -0.0395,-28.03294 5.61748,-24.21553 -35.85152,-24.19279 -36.87867,0.02 -36.10008,-0.033 -39.16542,2.67051 -1.05814,0.93319 -3.85921,3.03552 -6.22465,4.67182 -2.36543,1.63633 -6.32959,4.65211 -8.80926,6.70163 -2.47966,2.04957 -5.21548,4.02186 -6.0796,4.38291 -2.18169,0.91156 -4.47582,3.68303 -5.28097,6.37984 -2.59982,8.70779 -5.07459,12.86618 -11.64977,19.57517 -28.50755,29.08787 -79.63251,-2.20806 -67.05872,-41.04976 10.4648,-32.32675 56.27539,-40.14943 71.33709,-12.18154 1.38301,2.56808 4.6711,0.37924 22.78018,-15.16441 6.73735,-5.78287 3.19962,-5.38119 48.71383,-5.53086 20.06676,-0.066 36.6585,-0.29376 36.87057,-0.50615 0.45907,-0.45984 0.35418,-51.14208 -0.10742,-51.88895 -0.21257,-0.34393 -13.27226,-0.49505 -39.20601,-0.45378 -38.77708,0.0617 -38.89367,0.0588 -41.12657,-1.02211 -9.57462,-4.63497 -9.49512,-21.52908 0.12263,-26.06005 2.24271,-1.0566 2.86173,-1.07649 41.23692,-1.32569 38.96003,-0.25298 38.96003,-0.25298 39.26816,-2.78283 0.37746,-3.09861 0.0425,-53.45143 -0.35833,-53.85234 -3.25938,-3.2613 -125.73693,0.0385 -127.38705,3.43176 -18.1033,37.23063 -77.33903,22.38396 -77.4185,-19.40392 -0.0838,-44.05368 58.52859,-57.14047 78.75833,-17.58488 1.88222,3.68032 120.36381,7.14618 125.84443,3.6812 0.75749,-0.47891 1.2286,-55.51036 0.48549,-56.71283 -0.15115,-0.24456 -17.69594,-0.50593 -39.21302,-0.5842 -44.01708,-0.16017 -40.89132,0.13742 -44.7527,-4.26048 -5.8686,-6.68398 -4.16266,-19.94229 3.05118,-23.71335 2.89395,-1.51286 9.34059,-1.76737 44.7646,-1.76737 25.77502,0 35.70159,-0.15675 35.95564,-0.5678 0.19303,-0.31228 0.32108,-11.6398 0.28466,-25.17225 -0.0365,-13.53242 -0.067,-25.68594 -0.0681,-27.00779 0,-2.40337 0,-2.40337 -40.32002,-2.40337 -39.34081,0 -40.36808,-0.0249 -42.37537,-1.01525 -2.15525,-1.06368 -15.28508,-10.81919 -21.27629,-15.80843 -4.14093,-3.44841 -3.82367,-3.39134 -5.62512,-1.01194 -22.67035,29.94309 -72.28819,13.51984 -72.22866,-23.90728 0.0658,-41.40558 52.46398,-57.68946 75.2189,-23.37599 2.15767,3.25367 3.30179,5.66357 6.05337,12.75052 0.94089,2.42331 1.67026,3.39316 3.61505,4.80674 1.34,0.97401 6.15349,4.54894 10.69664,7.94425 15.05864,11.25407 9.80506,9.99327 42.42842,10.18216 48.80356,0.28256 43.80989,2.59932 43.82,-20.33008 0.0137,-31.29928 1.48328,-37.7681 10.86323,-47.8241 10.89415,-11.67925 16.94661,-12.91702 61.66094,-12.60999 21.83143,0.14991 21.83143,0.14991 22.09573,-52.72444 0.28757,-57.55029 0.13812,-54.88821 3.28858,-58.56877 6.73329,-7.86639 20.72287,-6.08723 24.88349,3.16457 0.85745,1.90667 0.91014,5.07603 0.91014,54.72873 0,28.98763 0.14614,52.85132 0.32469,53.03039 0.17857,0.17902 10.13996,0.45913 22.13639,0.62246 23.73598,0.32311 21.96323,6.50641 22.00624,-76.75818 0,-3.59534 -0.27693,-5.08919 -1.69948,-9.10754 -6.11062,-17.2599 2.19729,-31.62138 17.46756,-30.19539 12.60169,1.17675 18.8247,14.94623 13.68057,30.27032 -1.16298,3.46451 -1.64583,81.72994 -0.52631,85.30829 0.15436,0.49327 5.04624,0.63246 22.22525,0.63246 22.02731,0 22.02731,0 21.89925,-79.29137 -0.12803,-79.29137 -0.12803,-79.29137 -1.7474,-80.32346 -7.4384,-4.74084 -9.35459,-6.0972 -11.61208,-8.21946 -33.47422,-31.46853 3.62232,-86.5016 45.09899,-66.90481 22.8943,10.81703 31.43487,43.80925 15.87779,61.336 -6.5209,7.34656 -7.44984,8.17666 -12.44307,11.11925 -5.92524,3.49189 -5.71738,3.12192 -5.97393,10.63215 -0.3403,9.96233 -0.31592,150.72728 0.0264,151.06978 1.11589,1.11724 45.25471,0.59245 45.53507,-0.54138 1.42388,-5.75896 -0.15604,-81.90778 -1.77709,-85.65135 -5.40257,-12.47651 -0.04,-26.38899 11.29817,-29.31075 16.94787,-4.36741 29.12536,14.20854 20.44045,31.18059 -1.54608,3.02142 -2.44532,52.10702 -1.46978,80.22982 0.16255,4.68547 0.16255,4.68547 22.51585,4.55376 23.65872,-0.13945 24.36253,-3.19863 22.08905,-96.01394 -0.40163,-16.39504 6.9709,-23.55518 20.02568,-19.44895 9.76289,3.07086 9.44004,0.84279 9.09404,62.76052 -0.23222,41.54517 -0.1625,51.81935 0.35401,52.14777 0.35371,0.22491 11.23056,0.34508 24.1709,0.26701 41.75605,-0.25193 46.49365,0.76401 57.72365,12.3783 10.2577,10.60873 11.1719,14.2273 11.4083,45.15606 0.095,12.35644 0.2949,22.58948 0.4455,22.74008 0.3007,0.30067 4.5805,0.35255 42.1007,0.51042 30.4139,0.12796 24.6279,1.72617 45.427,-12.54827 9.413,-6.4602 9.6446,-6.67381 10.6711,-9.83985 6.6288,-20.44639 19.2766,-30.86282 38.301,-31.54351 45.5454,-1.62964 61.0708,58.29235 19.9971,77.18094 -17.4771,8.03721 -35.8236,4.06951 -48.4829,-10.48517 -3.144,-3.61475 -2.7585,-3.52326 -5.3071,-1.25987 -1.1131,0.9886 -3.0485,2.50747 -4.3008,3.37531 -1.2523,0.86787 -3.7568,2.73823 -5.5657,4.15645 -3.7305,2.92479 -8.9349,6.59877 -11.8072,8.33522 -3.0138,1.82204 -7.171,2.00944 -45.7364,2.06178 -24.4515,0.0334 -35.6371,0.21564 -35.8653,0.58501 -0.1824,0.29518 -0.2657,10.47054 -0.1851,22.61189 0.2093,31.486 0.2061,31.31467 0.5948,31.70408 0.1943,0.19449 16.8156,0.32256 36.9362,0.28445 40.7001,-0.077 39.8287,-0.14222 43.8284,3.28138 6.2028,5.30942 6.5973,16.9461 0.7653,22.57831 -4.1539,4.01173 -2.9542,3.93361 -60.5599,3.94263 -21.6847,0.006 -21.6847,0.006 -21.5039,28.37874 0.1806,28.3413 0.6665,34.42634 2.3465,29.38604 0.092,-0.27492 24.2117,-0.38301 59.8146,-0.26809 59.661,0.19257 59.661,0.19257 61.0176,-2.21317 7.2426,-12.84517 11.0027,-16.95662 19.0455,-20.82464 35.3184,-16.98581 73.8302,17.76424 57.8994,52.24421 -1.5939,3.44971 -2.3988,4.73279 -6.4075,10.21288 -9.8666,13.48803 -34.661,18.93666 -49.8132,10.94656 -8.4547,-4.45824 -18.4463,-14.34678 -20.6716,-20.45809 -0.3323,-0.91277 -122.1367,-1.20321 -123.0463,-0.29339 -0.4021,0.40227 -0.3522,55.65088 0.051,56.05346 0.1556,0.15546 17.0559,0.2843 37.5561,0.28638 34.6193,0.006 37.4605,0.0688 39.9027,0.91719 10.6895,3.7134 11.3101,21.38946 0.9505,27.06692 -1.4084,0.77175 -5.1901,0.87673 -39.8418,1.10568 -21.0572,0.13916 -38.4143,0.38172 -38.5715,0.53903 -0.3106,0.31103 -0.5356,23.64265 -0.3929,40.76541 0.09,10.84302 0.8107,13.73663 2.6707,10.72712 0.1934,-0.31292 0.6273,-0.3749 1.0022,-0.14314 0.3636,0.22475 16.498,0.37189 35.8543,0.32694 43.363,-0.10056 37.5167,-1.49233 54.0802,12.87404 2.569,2.22825 9.2367,7.17799 10.9942,8.1615 0.6561,0.36726 2.0439,-0.74797 6.7236,-5.40315 36.5038,-36.31203 92.5424,15.26182 59.9913,55.21148 -20.5485,25.21906 -61.9048,16.14133 -71.5615,-15.70783 -1.2221,-4.03083 -0.5901,-3.37723 -8.6441,-8.93934 -5.0338,-3.47629 -11.8348,-8.53866 -14.8727,-11.07052 -3.4455,-2.87154 -5.8744,-4.61314 -7.0837,-5.07933 -1.3351,-0.51469 -68.1885,-0.36127 -68.7077,0.15765 -0.2207,0.22055 -0.4818,11.0812 -0.5804,24.13481 -0.2593,34.32944 -0.9988,36.71613 -15.2927,49.3565 -7.0698,6.252 -16.7075,8.11408 -41.6598,8.04904 -20.18492,-0.0522 -34.39937,0.3578 -35.47779,1.02428 -1.33545,0.82537 -1.25459,82.77584 0.0879,89.40914 2.79405,13.8031 -3.70478,23.8924 -15.38974,23.8924 -11.21971,0 -16.43145,-8.1377 -14.81011,-23.1248 0.77817,-7.1928 1.00525,-90.2016 0.24889,-90.95799 -0.55859,-0.55856 -43.79713,-0.0297 -44.40975,0.54299 -1.7669,1.6523 -0.1024,82.9605 1.78569,87.2292 5.35055,12.0962 -2.32722,25.4513 -15.06561,26.2057 -13.19181,0.7812 -20.73479,-10.4613 -16.78125,-25.012 1.44246,-5.3088 2.49244,-88.16582 1.12799,-89.00903 -0.94314,-0.58298 -44.7598,-0.1126 -45.35921,0.48687 -0.0946,0.0946 -0.1683,7.54398 -0.16374,16.55406 0.006,9.01017 0.0137,42.2509 0.0196,73.8683 0.0115,57.4864 0.0115,57.4864 3.93298,59.7742 38.58865,22.5134 25.16404,75.2692 -19.60652,77.0492 -4.78419,0.1901 -6.38853,0.057 -9.02358,-0.7497 z m 14.42115,-28.1033 c 14.11847,-4.1926 10.02651,-25.6885 -4.89241,-25.7008 -13.86492,-0.012 -17.23793,23.4417 -3.69769,25.7107 1.06023,0.1776 2.1553,0.4002 2.43359,0.4945 1.20536,0.4088 3.79615,0.1966 6.15651,-0.5044 z M 1023.1557,941.59366 c 4.1309,-1.22676 8.2621,-5.5502 9.1714,-9.59864 1.2649,-5.63042 0.9977,-448.30532 -0.2731,-452.46777 -1.1754,-3.84956 -3.8708,-7.12458 -7.1841,-8.72846 -3.055,-1.47893 -431.32564,-1.66466 -436.29385,-0.18924 -3.32207,0.98654 -5.73061,3.12241 -7.42395,6.58349 -1.78144,3.64114 -2.33594,453.11147 -0.56462,457.70157 1.19035,3.08461 4.66882,6.31866 7.26458,6.754 1.06856,0.17925 2.17052,0.4031 2.44881,0.4975 2.1375,0.72494 430.39393,0.17835 432.85483,-0.55245 z m -131.294,-58.5969 c -3.52164,-1.18566 -5.28366,-1.89589 -10.11951,-4.07908 -5.33087,-2.40664 -15.50842,-5.47029 -26.05768,-7.84388 -2.64371,-0.59481 -5.9452,-1.40397 -7.33664,-1.79816 -3.87713,-1.09841 -14.27445,-2.53253 -24.03376,-3.31501 -18.33509,-1.47 -47.24808,0.11081 -60.46398,3.30584 -1.66972,0.40365 -4.74351,1.10727 -6.83066,1.56355 -6.93132,1.51536 -26.81293,7.71362 -34.30525,10.69489 -12.0275,4.78593 -14.0353,2.48683 -20.85255,-23.87805 -0.5037,-1.94799 -2.40701,-8.81139 -4.22953,-15.25202 -3.03805,-10.73597 -9.1367,-33.96532 -10.67438,-40.65815 -0.35167,-1.53057 -1.23854,-4.83207 -1.97085,-7.33664 -0.73224,-2.50457 -1.87681,-6.94449 -2.54344,-9.86649 -1.14375,-5.01335 -2.34158,-9.73497 -9.9481,-39.21305 -1.72347,-6.67885 -3.76293,-14.76179 -4.53227,-17.96209 -1.92624,-8.01301 -5.37926,-21.18397 -6.83157,-26.05767 -0.66339,-2.22628 -1.67677,-6.09699 -2.25204,-8.60157 -0.57517,-2.50458 -1.26948,-5.46454 -1.54291,-6.57768 -3.17725,-12.93623 -3.12722,-15.42967 0.41293,-20.56334 3.7786,-5.47961 3.63905,-4.50121 3.65642,-25.63978 0.0241,-29.77789 1.65771,-35.68375 11.56803,-41.82769 5.66694,-3.51321 5.54611,-3.49867 30.65327,-3.68905 16.90884,-0.12821 22.85552,-0.32761 23.14058,-0.77603 0.21104,-0.33187 0.39111,-9.14174 0.40023,-19.57748 0.0338,-38.8995 3.1165,-41.73169 45.25103,-41.5746 21.72429,0.081 21.72429,0.081 25.8047,-3.86295 7.8625,-7.5996 11.5301,-8.32278 40.99141,-8.08278 24.8814,0.20261 28.21812,1.02919 36.05001,8.93007 7.53377,7.60015 8.39281,12.1995 7.93591,42.48716 -0.30009,19.88701 -0.24557,23.51702 0.35859,23.89952 0.39179,0.24806 10.64267,0.4545 22.77972,0.45873 40.27612,0.0142 42.44982,2.10652 42.60543,41.01181 0.092,23.00172 0.092,23.00172 3.06865,27.22211 4.81414,6.82559 4.29991,10.9026 -6.2969,49.91888 -1.15856,4.26579 -2.28569,8.81099 -5.26959,21.25093 -1.00133,4.17431 -2.73117,11.11879 -3.84417,15.43224 -1.113,4.31342 -2.61209,10.23332 -3.33126,13.15532 -6.71202,27.27002 -8.60205,34.83148 -10.62337,42.50186 -1.28333,4.87003 -3.01018,11.58683 -3.83735,14.92626 -1.45128,5.85888 -4.51137,17.456 -6.54194,24.79275 -0.53918,1.94799 -1.98528,7.44783 -3.21365,12.22181 -6.00436,23.33619 -8.68822,27.12303 -17.19356,24.25951 z M 736.78051,845.48877 c 2.36541,-0.62079 6.12227,-1.71563 8.34858,-2.43288 36.5306,-11.76995 107.87411,-9.89536 133.9393,3.5193 1.37392,0.70712 1.37392,0.70712 2.59334,-3.47113 3.93358,-13.47804 13.18754,-49.09107 19.03225,-73.24378 2.25598,-9.32256 4.65468,-19.11319 5.33039,-21.75689 4.51269,-17.65603 6.06036,-23.64095 7.3271,-28.33459 1.7856,-6.6158 3.85371,-17.38326 3.61423,-18.81682 -0.0888,-0.53128 -4.57774,1.1177 -7.14192,2.62341 -1.25226,0.73538 -3.5363,1.9121 -5.07558,2.61491 -1.53932,0.70283 -3.93005,2.08187 -5.31272,3.06461 -1.38275,0.9827 -4.2217,2.64719 -6.30886,3.69891 -10.14281,5.11092 -10.46568,5.46648 -13.47689,14.84278 -14.15833,44.08652 -76.54247,61.58524 -120.13474,33.69776 -13.83143,-8.84839 -22.98865,-19.8387 -29.28547,-35.14788 -1.54527,-3.75685 -3.03724,-7.19755 -3.31553,-7.64588 -0.27829,-0.44842 -6.5683,-3.77585 -13.9779,-7.39431 -7.40952,-3.61854 -14.71914,-7.40697 -16.24355,-8.4188 -3.54654,-2.35413 -3.47043,-2.39327 -2.56864,1.3226 1.7241,7.104 2.76309,11.59745 4.1824,18.0886 0.82146,3.75684 2.53828,10.81519 3.81508,15.68521 2.92144,11.14241 6.16122,23.77077 13.88932,54.13928 3.36383,13.21858 6.9057,26.99373 7.87077,30.61145 0.96511,3.61773 2.32455,8.82241 3.02109,11.56603 2.9008,11.42681 3.56171,13.19362 4.74291,12.67975 0.45881,-0.19959 2.76959,-0.87082 5.13504,-1.49164 z m 92.9552,-104.59421 c 14.59412,-8.02127 21.66679,-18.53902 22.3719,-33.26915 0.46749,-9.766 0.34332,-156.7124 -0.13281,-157.18943 -0.55385,-0.55484 -29.69218,-0.86939 -30.23522,-0.32638 -0.9366,0.93661 -1.27013,51.88634 -1.04233,159.2235 0.0866,40.81929 -0.98667,37.0715 9.03846,31.56146 z m -39.58623,-5.56701 c 0.65924,-16.42098 0.0918,-171.26804 -0.63019,-171.98996 -0.83822,-0.83799 -30.63641,-0.9683 -31.46737,-0.13756 -0.72522,0.72496 -0.71995,141.66877 0.006,146.70228 0.97892,6.7923 1.79428,8.8039 6.42142,15.84232 3.82553,5.81906 7.77479,8.88 21.88717,16.96394 3.52584,2.01972 3.39588,2.2733 3.7835,-7.38102 z m -63.72822,-56.83587 c 0.46393,-7.42508 0.0729,-53.67528 -0.45821,-54.20748 -0.47795,-0.47881 -29.69143,-0.8523 -32.05049,-0.40971 -2.67878,0.50256 -2.60263,43.00682 0.0807,45.05349 1.78178,1.35903 30.42894,15.38035 31.4794,15.40756 0.38625,0.01 0.70586,-1.95864 0.94859,-5.84386 z m 167.54601,1.05132 c 5.52075,-2.6442 11.74548,-5.68936 13.8326,-6.76699 2.08716,-1.07763 4.8652,-2.35621 6.1734,-2.84128 4.43204,-1.64331 4.17515,-0.15803 4.00931,-23.18144 -0.0806,-11.18467 -0.24055,-20.42977 -0.35552,-20.54474 -0.37483,-0.37483 -33.31011,-0.04 -33.67129,0.34242 -0.2765,0.29264 -0.75794,54.66213 -0.50622,57.16715 0.0879,0.87508 -0.58182,1.14098 10.51772,-4.17512 z M 414.32609,916.66875 c 12.72312,-6.49085 9.25933,-23.95491 -5.00775,-25.24859 -12.66613,-1.14855 -17.85049,17.41823 -6.98811,25.02652 2.62815,1.84085 8.60591,1.9515 11.99586,0.22207 z m 793.28511,-0.36811 c 11.932,-6.99255 7.6063,-25.19103 -5.9576,-25.06403 -6.6774,0.0625 -9.4491,1.58749 -11.8669,6.52903 -6.0191,12.30271 6.4082,25.22542 17.8245,18.535 z M 390.05084,718.14186 c 6.30411,-2.06269 8.7445,-5.47839 8.73374,-12.22411 -0.015,-9.42016 -9.3904,-15.78037 -17.95714,-12.18202 -11.59776,4.8715 -10.13587,22.96789 2.02389,25.05331 3.26163,0.5594 3.6067,0.52839 7.19951,-0.64718 z m 836.92426,0.39345 c 15.1159,-4.02363 12.3576,-25.58314 -3.2732,-25.58314 -16.9236,0 -17.3349,25.28351 -0.4268,26.24133 0.5565,0.0315 2.2216,-0.26467 3.7,-0.65819 z M 413.37614,519.46939 c 5.38758,-2.18661 8.42175,-6.77626 8.40633,-12.71586 -0.0365,-14.06847 -19.40289,-18.06455 -24.52123,-5.05974 -4.4379,11.27596 5.39781,22.12526 16.1149,17.7756 z m 794.08746,-0.72931 c 12.1513,-7.14752 7.0319,-25.27131 -6.9315,-24.53846 -14.8106,0.77738 -16.6228,21.05754 -2.3028,25.77022 2.2739,0.7483 6.922,0.12836 9.2343,-1.23176 z M 811.41173,254.33538 c 13.2867,-6.36349 8.59926,-24.88281 -6.29001,-24.85094 -6.27141,0.0132 -12.17805,6.05515 -12.17805,12.45664 0,10.49341 9.34379,16.76425 18.46806,12.3943 z M 548.71978,1111.8492 c -16.56084,-2.7648 -31.15216,-20.1129 -31.87592,-37.8981 -1.63841,-40.2618 47.56447,-58.7851 72.77718,-27.3983 23.74847,29.5641 -2.63566,71.6848 -40.90126,65.2964 z m 15.18592,-28.9674 c 12.69312,-7.4386 6.48583,-25.3128 -8.32419,-23.9698 -5.64947,0.5122 -9.15021,3.6885 -10.86556,9.8583 -3.05386,10.9842 9.17777,19.9789 19.18975,14.1115 z m 481.0133,28.8388 c -43.9636,-10.5425 -41.9962,-73.2097 2.5299,-80.5826 36.8682,-6.1048 63.0299,43.5615 36.01,68.3625 -1.0211,0.9372 -2.8814,2.6436 -4.1336,3.7919 -7.1504,6.556 -24.4951,10.805 -34.4063,8.4282 z m 14.3106,-28.4623 c 5.5108,-2.7521 7.4464,-5.5637 7.4464,-10.8169 0,-17.0274 -23.9167,-18.769 -25.6479,-1.8678 -1.0246,10.0023 9.2438,17.1582 18.2015,12.6847 z M 417.628,818.9092 c -9.326,-1.83844 -16.32175,-11.15294 -16.30259,-21.70608 0.0464,-25.56029 36.50671,-28.96073 41.81836,-3.90018 3.20836,15.13724 -10.22696,28.62022 -25.51577,25.60626 z m 766.1367,0.0331 c -25.1652,-3.69124 -22.383,-41.78517 3.0802,-42.17383 26.935,-0.41105 30.8527,37.98717 4.3007,42.1539 -3.6032,0.56541 -3.6605,0.56557 -7.3809,0.0196 z M 415.62389,637.52777 c -11.21461,-3.02042 -17.38193,-17.10085 -12.7969,-29.21618 6.23897,-16.48574 31.31608,-16.92487 38.75383,-0.67873 7.96998,17.40877 -7.24679,34.93409 -25.95693,29.89491 z m 768.43811,0.45061 c -10.3155,-1.55524 -16.4879,-8.5743 -17.0807,-19.4236 -1.561,-28.57464 39.8929,-31.31257 42.5949,-2.81325 1.2657,13.34956 -11.3771,24.36831 -25.5142,22.23685 z M 550.1704,377.40736 c -42.46789,-5.76852 -43.99251,-70.65069 -1.86465,-79.35245 49.65882,-10.25731 70.70335,61.56694 22.73697,77.60041 -7.45691,2.49259 -12.37887,2.90576 -20.87232,1.75204 z m 11.91141,-27.77461 c 12.27641,-5.12942 9.91902,-23.05742 -3.26176,-24.8059 -14.69953,-1.94998 -20.20812,19.90245 -6.27242,24.88251 2.50999,0.89693 7.29614,0.85853 9.53418,-0.0767 z m 484.23359,28.10759 c -21.3684,-2.70508 -38.0227,-26.0628 -33.5673,-47.07834 6.8659,-32.38526 45.1779,-44.82126 68.7126,-22.30403 29.4849,28.21012 5.9913,74.59001 -35.1453,69.38237 z m 11.1913,-28.12049 c 14.8539,-4.4111 9.5908,-26.63324 -5.8771,-24.81533 -3.4299,0.40317 -6.2823,1.83412 -7.9102,3.96836 -8.515,11.16388 0.4987,24.79327 13.7873,20.84697 z"
       id="path1"
       sodipodi:nodetypes="sssssssssscssssssssssssssssssssssssccsssssssssscscssssssssssssssssscssssssscsssscssssssssssssssssssssssssssssssscssssssssssscssssssssssssssssssssssssssssssscccssssssssssssssssssssssssssssssssssscssssssssssssssssssssssssscsssssssssssssssssssssssssssssssssssssssssssssssssssssssssssssssssssssssssssssscsssssssssssssssssssssssssssssssssssscssccsscssssssss" />
  </g>
</svg>
